<?xml version="1.0" encoding="UTF-8"?>
<svg id="_Слой_2" data-name="Слой 2" xmlns="http://www.w3.org/2000/svg" viewBox="0 0 341.1 107.18">
  <defs>
    <style>
      .cls-1 {
        fill: #fefefe;
      }

      .cls-1, .cls-2, .cls-3, .cls-4, .cls-5, .cls-6, .cls-7, .cls-8, .cls-9, .cls-10, .cls-11, .cls-12, .cls-13, .cls-14, .cls-15, .cls-16, .cls-17, .cls-18, .cls-19, .cls-20 {
        stroke-width: 0px;
      }

      .cls-2 {
        fill: #fdfefe;
      }

      .cls-3 {
        fill: #f9fafa;
      }

      .cls-4 {
        fill: #030303;
      }

      .cls-5 {
        fill: #e8ebeb;
      }

      .cls-6 {
        fill: #e6e6e6;
      }

      .cls-7 {
        fill: #006dfe;
      }

      .cls-8 {
        fill: #eceeee;
      }

      .cls-9 {
        fill: #fafafa;
      }

      .cls-21 {
        letter-spacing: -.01em;
      }

      .cls-10 {
        fill: #3d3d3d;
      }

      .cls-11 {
        fill: #f2f4f4;
      }

      .cls-22 {
        letter-spacing: 0em;
      }

      .cls-12 {
        fill: #f1f1f1;
      }

      .cls-23 {
        letter-spacing: -.02em;
      }

      .cls-13 {
        fill: #fbfcfc;
      }

      .cls-14 {
        fill: #fee701;
      }

      .cls-15 {
        fill: #232020;
      }

      .cls-16 {
        fill: #fdfdfd;
      }

      .cls-17 {
        fill: #0b0909;
      }

      .cls-24 {
        letter-spacing: 0em;
      }

      .cls-18 {
        fill: #ab14a7;
      }

      .cls-19 {
        fill: #fcfcfc;
      }

      .cls-25 {
        fill: #fff;
        font-family: SegoePrint-Bold, 'Segoe Print';
        font-size: 19.26px;
        font-weight: 700;
      }

      .cls-20 {
        fill: #f8f9f9;
      }
    </style>
  </defs>
  <g id="_Слой_3" data-name="Слой 3">
    <g>
      <text class="cls-25" transform="translate(123.59 43.89)"><tspan class="cls-23" x="0" y="0">С</tspan><tspan class="cls-24" x="13.05" y="0">айт программиста</tspan><tspan class="cls-21" x="19.83" y="23.11">Ф</tspan><tspan class="cls-24" x="36.4" y="23.11">еликса </tspan><tspan class="cls-22" x="109.58" y="23.11">П</tspan><tspan class="cls-24" x="124.1" y="23.11">етрова</tspan></text>
      <g>
        <path class="cls-4" d="M25.41,73.59c-.48-.14-.62-.54-.67-.95-.18-1.38.2-2.6,1.06-3.69.12-.15.23-.3.33-.46.06-.09.07-.21.14-.41-.18.05-.29.04-.36.1-.12.09-.23.2-.31.31-.37.54-.74,1.08-1,1.7-.26.63-.39,1.28-.28,1.97.03.17.03.35.03.52,0,.31-.03.36-.33.46-.08.03-.16.04-.23.06-.48.11-.86-.07-1.02-.52-.09-.26-.1-.55-.12-.83-.02-.28-.03-.56,0-.84.02-.28.05-.57.16-.82.36-.8.75-1.58,1.46-2.14.03-.02.08-.05.09-.08.02-.08.06-.18.03-.25-.05-.12-.18-.13-.27-.05-.28.25-.59.47-.81.77-.3.41-.53.87-.79,1.31-.08.13-.12.34-.32.3-.2-.04-.17-.25-.19-.4-.02-.22-.03-.45-.05-.67-.36-.07-.4-.05-.41.24-.02.62.09,1.21.41,1.74.21.36.31.73.33,1.14.01.28.06.56.15.83.16.44.49.86,1.17.76.23-.03.45-.07.68-.09.26-.02.37.04.4.22.04.17-.04.28-.31.34-.65.14-1.31.27-1.97.4-.63.13-1.26.27-1.89.4-.26.06-.52.14-.79.15-.71.03-1.36.3-2.03.49-.6.18-1.2.4-1.8.57-.68.2-1.34.46-1.95.83-.5.31-1.06.51-1.59.77-.18.09-.36.18-.51.3-.51.41-1.02.84-1.51,1.27-.59.52-1.07,1.12-1.5,1.78-.37.57-.73,1.16-1.23,1.64-.15.15-.26.34-.36.53-.35.64-.8,1.21-1.29,1.75-.21.23-.38.48-.58.72-.75.88-1.7,1.23-2.84,1.08-.25-.03-.52-.05-.75-.13-.72-.27-1.38-.62-1.64-1.41-.08-.23-.13-.47-.13-.71,0-.93-.01-1.86.07-2.78.06-.72.24-1.43.59-2.08.14-.26.26-.53.38-.8.18-.39.44-.73.72-1.06.54-.64,1.03-1.31,1.57-1.94.97-1.15,2.09-2.13,3.47-2.77.07-.03.15-.07.21-.13.45-.41,1.01-.61,1.54-.86.12-.06.25-.11.36-.18.56-.36,1.21-.5,1.84-.69.53-.16,1.06-.32,1.56-.54.78-.35,1.6-.56,2.43-.72,1.23-.23,2.44-.5,3.66-.79.65-.16,1.32-.24,1.98-.35.24-.04.48-.07.72-.1.17-.02.26-.12.28-.29.04-.28.06-.56.14-.83.11-.34.26-.67.41-1.01.41-.94.91-1.83,1.67-2.54.48-.45,1-.85,1.64-1.08.62-.22.83-.95.47-1.51-.16-.24-.16-.48-.11-.73.14-.72.3-1.45.42-2.17.17-1.11.46-2.17.85-3.22.18-.49.28-1.01.42-1.51.49-1.8.98-3.6,1.47-5.39.18-.66.37-1.32.57-1.97.11-.37.26-.73.39-1.1.21-.61.4-1.22.64-1.82.49-1.23.99-2.46,1.63-3.63.08-.14.14-.29.2-.44.31-.68.75-1.23,1.42-1.59.08-.04.14-.11.26-.21-.13-.1-.22-.18-.33-.25-1.3-.77-2.52-1.65-3.56-2.75-.42-.45-.81-.93-1.22-1.39-.2-.22-.4-.44-.64-.61-1.93-1.36-3.88-2.7-5.82-4.05-.44-.31-.89-.61-1.32-.92-.21-.15-.4-.32-.58-.5-.18-.19-.16-.36.06-.49.13-.08.3-.12.45-.16.78-.21,1.55-.41,2.32-.61.1-.19-.04-.26-.14-.34-1.09-.94-2.17-1.88-3.26-2.83-.21-.19-.42-.37-.62-.57-.25-.24-.28-.38-.11-.68.13-.23.29-.45.45-.67.62-.86,1.25-1.72,1.87-2.57.41-.56.84-1.11,1.25-1.68,1.36-1.87,2.71-3.74,4.07-5.61.84-1.15,1.68-2.3,2.53-3.44,1.39-1.89,2.78-3.79,4.17-5.68.24-.32.47-.66.7-.98.06-.09.13-.17.21-.24.22-.18.36-.17.56.04.15.15.29.32.41.5.77,1.15,1.54,2.3,2.3,3.45.23.35.47.69.68,1.05.15.25.35.32.64.29.77-.1,1.55-.17,2.32-.25.82-.09,1.64-.02,2.45.06.57.06,1.15.13,1.71.21.33.05.57-.07.79-.3.41-.43.82-.85,1.24-1.27.47-.46.95-.91,1.42-1.37.47-.46.93-.93,1.39-1.4.07-.07.13-.13.21-.19.36-.28.67-.2.81.23.13.42.2.86.3,1.29.38,1.55.76,3.1,1.13,4.65.11.44.2.89.28,1.34.07.39.22.71.53,1,1.44,1.37,2.67,2.9,3.61,4.66.74,1.39,1.25,2.85,1.57,4.38.35,1.64.36,3.31.28,4.98-.05,1.13-.21,2.24-.5,3.34-.07.27-.18.53-.26.8-.13.4-.12.39.21.61.25.17.51.36.71.58.63.69.63,1.61,0,2.29-.25.27-.57.49-.91.65-.53.25-1.11.42-1.72.35-.36-.04-.61.09-.83.38-.72.96-1.52,1.86-2.44,2.62-.66.54-1.37,1.04-2.08,1.52-.42.29-.88.5-1.33.76-.09.05-.17.12-.26.2.18.31.32.6.67.73.19.07.36.23.5.39.72.79,1.43,1.61,2.15,2.4.45.5.93.96,1.38,1.46.37.41.71.85,1.05,1.27.57.7,1.12,1.41,1.69,2.1.68.82,1.38,1.61,2.07,2.42.2.24.39.48.59.71.15.17.3.35.49.47.28.18.37.41.31.72-.01.08-.04.16-.05.24-.03.16.03.27.18.31.41.09.81.18,1.22.25.11.02.24-.02.35-.07.94-.36,1.91-.63,2.89-.86.6-.14,1.21-.23,1.82-.31.55-.07,1.1,0,1.63.16.51.14.96.39,1.29.84.24.33.28.3.61.06,1.08-.81,2.04-1.75,2.98-2.71.75-.77,1.43-1.6,2.02-2.51.32-.49.7-.94,1.12-1.37.37-.37.65-.82.97-1.24.27-.35.52-.72.78-1.08.53-.72,1.06-1.45,1.61-2.16.16-.21.37-.39.56-.57.18-.16.36-.32.45-.58-.1-.06-.18-.11-.26-.14-.72-.33-1.44-.66-2.15-1-.11-.05-.22-.1-.32-.17-1.16-.82-2.5-1.28-3.78-1.88-1.89-.89-3.79-1.76-5.69-2.64-1.23-.57-2.46-1.12-3.7-1.69-.22-.1-.44-.19-.65-.31-.25-.15-.35-.43-.27-.69.26-.78.51-1.55.78-2.33.88-2.62,1.78-5.23,2.65-7.85.84-2.52,1.65-5.05,2.49-7.57.49-1.48,1.04-2.94,1.54-4.41.66-1.96,1.3-3.92,1.95-5.88.04-.13.09-.26.15-.37.15-.26.36-.3.6-.11.48.37.95.75,1.41,1.14.67.54,1.33,1.09,1.99,1.64.84.69,1.68,1.38,2.5,2.09.22.19.42.24.69.12,1.2-.51,2.47-.71,3.75-.88.68-.09,1.36-.13,2.04-.18.22-.01.39-.08.53-.24.11-.13.22-.27.31-.42.56-.85,1.11-1.71,1.68-2.56.54-.82,1.09-1.63,1.64-2.44.1-.14.21-.28.34-.39.19-.15.3-.13.44.06.11.15.21.32.28.49.74,1.8,1.48,3.6,2.22,5.4.27.66.54,1.32.83,1.96.07.15.2.3.34.37.85.44,1.62,1.01,2.36,1.61.86.71,1.65,1.49,2.35,2.37.86,1.07,1.62,2.21,2.17,3.47.38.87.77,1.74.98,2.68.05.24.15.48.25.79.15-.12.26-.19.35-.27.22-.22.42-.45.65-.65.27-.23.54-.14.58.2.03.34,0,.7-.06,1.03-.09.43-.25.85-.38,1.27-.02.07-.02.15-.04.29.2-.07.34-.12.49-.17.18-.06.37-.11.52.07.13.16.13.33-.03.55-.38.54-.79,1.05-1.39,1.38-.25.14-.32.35-.33.63-.03,1.74-.32,3.44-.85,5.1-.53,1.62-1.35,3.1-2.33,4.49-.88,1.25-1.94,2.33-3.13,3.29-.03.03-.06.05-.09.08-.25.23-.25.3-.03.56.24.29.5.57.7.88.67,1.05,1.08,2.21,1.4,3.41.61,2.27.95,4.6,1.4,6.9.19,1,.33,2.01.52,3.01.02.12.05.24.08.35.35,1.2.66,2.4,1.06,3.58.28.83.74,1.57,1.22,2.31.29.44.55.89.81,1.34.26.45.52.91.74,1.38.72,1.5,1.34,3.05,1.49,4.73.05.53.11,1.07.15,1.6.01.15-.03.29-.03.44-.01,1.06-1.45,1.28-2.01.85-.44-.34-.82-.73-1.03-1.27-.13-.35-.16-.37-.43-.54-.05.3-.1.59-.14.87-.04.3-.03.62-.3.85-.06.05-.05.23-.02.33.5,1.73.94,3.47,1.32,5.23.15.71.18,1.43.32,2.14.2,1.03.42,2.05.61,3.08.16.9.28,1.8.44,2.7.12.65.26,1.29.42,1.92.16.65.24,1.32.32,1.98.09.78.26,1.56.39,2.34.06.38.14.77.18,1.15.09.76.13,1.52.23,2.28.16,1.21.07,2.42.1,3.62.02.98-.03,1.96-.22,2.93-.03.13-.04.27-.05.4-.06.66-.53,1.4-1.48,1.43-.94.02-1.88.01-2.82.02-.74,0-1.48.03-2.22.04-1.11.01-2.23.04-3.34.02-.55,0-1.05.19-1.58.29-1.49.29-2.97.59-4.46.88-.86.16-1.72.31-2.58.45-.18.03-.37.05-.56.05-1.17.02-2.27.43-3.41.55-.65.07-1.31.17-1.96.18-1.75.02-3.5.03-5.24,0-.79-.02-1.58-.14-2.36-.28-.7-.13-1.34-.46-1.97-.79-.31-.17-.46-.43-.47-.79-.01-.38.07-.75.19-1.11.45-1.37.87-2.76,1.36-4.12.44-1.22.74-2.46.98-3.73.1-.55.25-1.1.43-1.63.24-.73.33-1.49.44-2.25.14-.98.29-1.96.61-2.91.16-.48.19-1,.28-1.5.01-.07,0-.14.02-.2.47-1.46.67-2.98.96-4.47.12-.63.26-1.26.35-1.9.18-1.37.54-2.71.78-4.07.06-.32.1-.64.15-.95.02-.13.04-.27.07-.4.19-.93.39-1.86.56-2.8.17-.95.4-1.89.66-2.82.23-.82.35-1.68.5-2.52.15-.79.29-1.58.43-2.38.08-.46.14-.93.21-1.39.03-.19.05-.37.09-.56.24-1.13.24-2.26.18-3.4-.04-.82,0-1.64-.03-2.46-.02-.59-.09-1.18-.15-1.76,0-.07-.06-.14-.11-.27-.14.13-.27.22-.36.33-.27.32-.51.66-.78.97-.45.52-.91,1.03-1.37,1.53-.41.45-.81.9-1.24,1.32-.9.88-1.82,1.75-2.74,2.62-.63.59-.9,1.36-1.07,2.17-.03.16,0,.35.03.52.15.81,0,1.55-.56,2.17-.25.27-.38.55-.43.92-.11.84-.62,1.41-1.39,1.75-.31.13-.52.32-.72.6-.5.72-1.23,1.1-2.11,1.17-.62.05-1.23-.04-1.84-.15-.03,0-.06,0-.08-.02-.51-.31-1.07-.27-1.63-.33-.63-.08-1.22-.34-1.55-.96-.15-.28-.34-.41-.67-.49-.53-.13-.99-.44-1.12-1.04-.05-.23-.17-.39-.36-.51-.36-.24-.72-.48-1.08-.71-.74-.47-1.45-.97-2.08-1.58-.39-.37-.81-.7-1.21-1.06-.08-.07-.17-.14-.23-.22-.9-1.16-2.05-2.05-3.16-2.97-.09-.08-.19-.15-.27-.24-.62-.64-1.3-1.24-1.83-1.97-.08-.11-.2-.2-.34-.33-.05.12-.09.19-.11.26-.39,1.08-.6,2.23-1.15,3.26-.1.18-.13.41-.13.62,0,.98,0,1.96.05,2.94.03.49.17.98.26,1.46.18.92.2,1.84.16,2.77-.03.71-.24,1.36-.52,2.01-.26.61-.5,1.22-.92,1.73-.04.05-.07.11-.11.17-.2.28-.19.53.01.83,1.01,1.48,1.62,3.15,2.1,4.86.29,1.03.61,2.06.79,3.12.24,1.39.63,2.74.93,4.12.19.88.4,1.75.46,2.65,0,.08.01.16.04.24.31.96.37,1.95.36,2.94,0,.97-.02,1.94-.02,2.9,0,.14.02.29.03.44.36.05.65-.1.9-.25.82-.5,1.75-.65,2.65-.93.94-.28,1.87-.21,2.83-.07.86.13,1.68.33,2.48.64.78.3,1.44.76,1.96,1.43.6.78.7,1.64.56,2.56-.06.37-.04.71.09,1.06.48,1.27.54,2.59.48,3.93,0,.15-.07.32-.16.45-.18.27-.37.53-.59.76-.65.69-1.3,1.39-1.99,2.05-.68.66-1.53,1.08-2.36,1.52-1.28.69-2.63,1.2-4.01,1.66-1.09.37-2.21.51-3.35.66-1.19.16-2.37.26-3.57.23-.36,0-.72-.08-1.08-.09-.45,0-.91.03-1.36.04-.23,0-.47.07-.68.02-.67-.15-1.32-.34-1.98-.53-.16-.05-.31-.15-.47-.23-.43-.22-.66-.58-.74-1.04-.07-.38-.1-.77-.16-1.15-.02-.14-.05-.31-.13-.41-.42-.55-.52-1.2-.6-1.85-.12-1-.23-2-.3-3-.05-.74-.05-1.48.09-2.21.07-.34.07-.67-.02-1-.07-.24-.03-.46.03-.71.25-.92.47-1.84.53-2.8.04-.62.13-1.23.19-1.84.02-.25.04-.51.05-.76,0-.69-.01-1.37,0-2.06.05-1.75-.09-3.49-.17-5.23-.04-.88-.11-1.76-.37-2.62-.12-.41-.13-.85-.2-1.27-.01-.09-.02-.19-.05-.28-.11-.4-.23-.8-.35-1.19-.07-.21-.11-.44-.32-.61-.18.12-.22.31-.25.49-.13.67-.26,1.34-.38,2.02-.07.37-.1.75-.17,1.11-.16.79-.33,1.57-.49,2.36-.09.45-.16.9-.27,1.34-.21.91-.41,1.83-.76,2.71-.14.35-.22.72-.32,1.08-.38,1.37-.96,2.67-1.51,3.99-.19.47-.36.96-.58,1.41-.25.5-.56.98-.83,1.47-.15.27-.28.55-.4.83-.11.27-.08.34.18.48.5.27,1,.53,1.49.79.63.33,1.24.71,1.77,1.19.76.69,1.37,1.5,1.57,2.52.11.53.07,1.1.09,1.65.04.84-.25,1.58-.68,2.28-.43.7-.84,1.4-1.25,2.11-.33.58-.82.89-1.47,1.01-.94.18-1.89.22-2.84.23-1.32.01-2.62-.11-3.92-.35-1.27-.23-2.52-.53-3.73-.99-.56-.21-1.14-.39-1.63-.77-.14-.1-.31-.16-.46-.25-.42-.26-.84-.53-1.25-.8-.09-.06-.17-.14-.26-.18-.57-.28-1.04-.71-1.53-1.11-.28-.24-.56-.43-.95-.48-.24-.03-.47-.19-.67-.34-.6-.44-1.11-.98-1.54-1.58-.39-.55-.54-1.17-.3-1.83.13-.37.28-.72.4-1.09.08-.24.18-.5.16-.74-.07-.92.3-1.7.78-2.41.71-1.05,1.43-2.11,2.5-2.87.16-.11.26-.33.37-.51.13-.21.22-.47.38-.65,1.28-1.43,2.4-2.97,3.43-4.58,1.13-1.76,2.22-3.56,2.87-5.57.31-.98.57-1.98.69-3.01.08-.62.28-1.23.41-1.84.19-.91.35-1.82.37-2.75,0-.05-.01-.1-.02-.16-.17-.12-.31-.02-.46.04-.46.19-.92.38-1.38.56-.13.05-.28.08-.49.14.06-.15.08-.23.12-.3.04-.07.1-.13.16-.18.82-.63,1.36-1.51,2.09-2.22.19-.18.27-.39.16-.71-.09.07-.18.12-.24.18-.56.6-1.11,1.21-1.68,1.79-.32.33-.67.62-1.02.91-.37.31-.75.6-1.13.91-.33.15-.68.17-1.04.16ZM95.57,38.25l-.11.02c-.04.34-.09.68-.13,1.03-.12,1-.17,2.01-.42,2.99-.07.3-.09.61-.14.91-.05.29-.07.59-.17.87-.27.78-.48,1.56-.6,2.38-.11.72-.41,1.39-.69,2.05-.11.25-.29.48-.6.47-.32,0-.44-.26-.54-.52-.11-.29-.19-.59-.33-.86-.5-.99-1.02-1.98-1.53-2.97-.09-.17-.16-.34-.25-.51-.16-.31-.32-.62-.49-.92-.19-.33-.38-.65-.59-.96-.43-.63-.87-1.26-1.3-1.89-.12-.18-.29-.21-.49-.18-.24.03-.48.04-.72.04-.38,0-.41.02-.47.39-.12.69-.34,1.36-.34,2.06,0,.17-.05.34-.1.51-.1.38-.17.76-.31,1.12-.22.57-.35,1.19-.87,1.6-.08.06-.12.18-.17.27-.57,1-1.11,2.03-1.84,2.93-.14.18-.2.37-.18.6.03.24.04.48.06.72.06.79.13,1.58.18,2.37.02.25-.04.51-.03.76.03.54.09,1.07.11,1.6.04,1.02.08,2.04-.22,3.04-.02.06-.01.13-.02.2-.11.76-.2,1.52-.32,2.27-.18,1.06-.36,2.12-.58,3.17-.19.92-.43,1.83-.64,2.74-.13.56-.27,1.12-.37,1.69-.24,1.32-.46,2.64-.71,3.96-.13.71-.31,1.41-.44,2.13-.15.82-.26,1.64-.41,2.46-.16.88-.36,1.76-.52,2.64-.17.92-.31,1.85-.5,2.77-.15.72-.32,1.44-.55,2.14-.27.84-.38,1.7-.52,2.56-.12.77-.17,1.55-.44,2.29-.1.29-.15.6-.22.9-.19.86-.37,1.73-.58,2.59-.16.62-.36,1.24-.54,1.85-.14.48-.28.95-.44,1.42-.38,1.13-.78,2.25-1.17,3.38-.03.1-.06.21-.07.31-.06.34,0,.48.31.61.52.22,1.04.42,1.58.6.32.11.65.21.97.23,1.27.06,2.55.1,3.83.12,1.37.02,2.74-.04,4.1-.2.75-.09,1.49-.21,2.21-.41.27-.07.55-.1.83-.12.32-.03.65,0,.97-.05,1.01-.17,2.01-.36,3.01-.55.98-.18,1.95-.38,2.92-.57.55-.11,1.11-.19,1.66-.33.51-.13,1.01-.27,1.54-.28,1.33-.02,2.66-.02,3.99-.03,1.44-.02,2.87-.06,4.31-.07.38,0,.57-.17.67-.5.02-.08.05-.15.06-.23.08-.65.2-1.3.22-1.96.04-1.24.03-2.47.01-3.71,0-.49-.08-.99-.13-1.48-.05-.57-.11-1.15-.17-1.72-.02-.24-.05-.48-.09-.72-.16-.93-.37-1.84-.41-2.78-.01-.36-.09-.72-.16-1.07-.12-.58-.3-1.14-.41-1.72-.13-.74-.2-1.49-.33-2.23-.17-.99-.37-1.98-.56-2.97-.17-.87-.37-1.73-.46-2.61-.05-.5-.22-.99-.33-1.49-.24-1.1-.48-2.2-.73-3.3-.08-.36-.22-.72-.32-1.08-.18-.67-.35-1.35-.54-2.02-.32-1.12-.66-2.24-1-3.35-.14-.46-.3-.92-.45-1.38-.04-.14-.07-.29-.1-.43-.07-.34-.15-.68-.21-1.02-.07-.38-.15-.77-.18-1.15-.06-.68-.16-1.36-.39-2.01-.37-1.03-.53-2.1-.76-3.16-.11-.52-.14-1.07-.38-1.56-.06-.12-.08-.26-.09-.39-.09-.8-.17-1.6-.27-2.4-.08-.66-.19-1.33-.29-1.99-.03-.24-.06-.48-.09-.72-.06-.48-.11-.96-.19-1.43-.14-.76-.29-1.53-.46-2.29-.22-.99-.25-2.02-.63-2.99-.18-.44-.25-.93-.37-1.4-.1-.37-.2-.74-.38-1.08ZM49.69,64.46c-.06-.65-.11-1.31-.18-1.96-.02-.13-.11-.28-.22-.36-.37-.27-.76-.5-1.14-.75-.26-.17-.52-.34-.77-.51-.34-.24-.67-.49-1.02-.72-.3-.19-.41-.18-.68.06-.55.49-1.08,1-1.63,1.5-.2.18-.4.36-.61.52-.34.26-.47.24-.71-.12-.2-.29-.37-.59-.57-.88-.56-.84-1.12-1.67-1.68-2.51-.25-.37-.35-.39-.67-.08-.41.39-.81.79-1.22,1.17-.52.47-1.05.91-1.57,1.38-.45.42-.87.88-1.34,1.28-.33.28-.65.55-.66,1.03,0,.05-.04.1-.07.15-.15.31-.19.64-.11.98.08.31.18.62.22.94.15,1.11.56,2.18.67,3.3.08.76.22,1.51.19,2.28-.02.61-.42,1.03-1.03,1.05-.17,0-.35,0-.52,0-.24.02-.45-.05-.64-.2-.42-.35-.85-.7-1.14-1.18-.26-.44-.53-.87-.81-1.3-.06-.09-.19-.21-.26-.2-.11.02-.24.13-.29.24-.06.14-.07.31-.08.47-.04.77-.08,1.55-.12,2.33,0,.03,0,.06,0,.08-.24.51-.14,1.08-.25,1.62-.25,1.2-.41,2.43-.65,3.63-.16.79-.41,1.55-.61,2.33-.18.72-.51,1.38-.82,2.05-.23.51-.49,1.02-.76,1.51-.26.47-.59.9-.83,1.38-.45.88-.99,1.68-1.58,2.47-.39.51-.76,1.04-1.14,1.55-.1.14-.21.28-.31.41-.33.42-.68.83-1,1.26-.15.2-.13.32.04.49.07.08.16.14.25.2.43.27.86.54,1.3.8.28.16.56.33.85.45,1.07.44,2.15.82,3.26,1.15.45.13.89.3,1.34.41.49.12,1,.19,1.5.28.87.15,1.74.29,2.63.3.27,0,.46-.07.59-.32.48-.91.99-1.81,1.46-2.73.14-.27.2-.58.32-.87.19-.46.43-.9.59-1.37.4-1.15.79-2.31,1.14-3.48.33-1.1.61-2.22.91-3.34.05-.21.05-.42.09-.63.11-.56.23-1.12.35-1.69.17-.83.32-1.65.49-2.48.19-.93.4-1.86.6-2.79.02-.12,0-.24.03-.36.07-.3.07-.66.25-.87.46-.54.95-1.06,1.6-1.4.07-.04.15-.1.22-.09.1.01.21.06.27.13.04.05.02.19-.02.25-.07.1-.17.16-.27.24-.37.31-.75.6-1.11.92-.29.27-.37.6-.18.99.19.4.39.8.52,1.22.2.61.38,1.23.52,1.85.11.45.13.93.22,1.38.08.42.25.83.3,1.25.05.44.09.88.11,1.32.04.9.06,1.79.13,2.69.05.68,0,1.37.01,2.06.01.49.06.97.01,1.47-.09.96.05,1.93-.13,2.89-.09.48-.06.99-.14,1.48-.11.67-.27,1.34-.41,2-.09.42-.04.51.4.49.46-.03.93-.1,1.39-.18.39-.07.77-.22,1.17-.28.68-.11,1.32-.33,1.94-.64.19-.09.4-.16.6-.23.57-.2,1.14-.39,1.71-.58.06-.02.12-.06.18-.09.51-.27,1.03-.52,1.53-.8.28-.15.56-.32.82-.5.09-.06.17-.18.2-.29.06-.22.12-.44.12-.67.01-1.21,0-2.42,0-3.63,0-.13-.01-.27-.04-.4-.11-.56-.07-1.15-.31-1.69-.02-.05,0-.11,0-.16-.06-.49-.11-.98-.2-1.47-.07-.41-.21-.8-.3-1.21-.27-1.21-.52-2.43-.8-3.65-.18-.81-.37-1.62-.59-2.42-.24-.88-.49-1.75-.77-2.62-.24-.76-.57-1.48-.95-2.17-.29-.52-.54-1.05-1.02-1.43-.2-.16-.19-.32-.02-.53.16-.2.34-.38.47-.6.23-.36.42-.75.64-1.12.3-.48.46-1.02.64-1.55.18-.53.08-1.07.16-1.6ZM74.18,3.15c-.07.18-.14.3-.18.44-.59,1.73-1.18,3.46-1.76,5.18-.31.9-.6,1.81-.91,2.71-.7,2.09-1.4,4.17-2.1,6.26-.66,1.99-1.33,3.97-1.99,5.96-.49,1.48-.98,2.96-1.47,4.44-.26.78-.53,1.55-.78,2.33-.1.32-.07.39.23.54,1.36.63,2.73,1.26,4.09,1.89,1.15.53,2.29,1.06,3.44,1.59.73.34,1.45.7,2.2.99.57.22,1.18.36,1.78.5.3.07.55.2.8.36.58.37,1.13.78,1.74,1.09.89.44,1.79.87,2.73,1.19.79.27,1.64.4,2.47.56,1.42.28,2.86.27,4.29.07,1.17-.17,2.33-.39,3.42-.87.66-.3,1.34-.55,1.99-.88,1.13-.58,2.18-1.27,3.11-2.14.5-.47,1.01-.93,1.47-1.43.65-.7,1.21-1.48,1.73-2.27.16-.24.33-.48.36-.78-.46-.19-.58-.12-.65.3,0,.04,0,.09-.02.12-.07.09-.14.22-.23.24-.09.02-.22-.06-.31-.13-.06-.05-.09-.16-.12-.25-.12-.39-.35-.59-.74-.6-.06,0-.18.05-.19.09-.05.33-.24.63-.16.98.04.18.07.37.08.56.02.83-.26,1.26-1.01,1.56-.12.05-.26.08-.39.1-.52.07-1.04.1-1.56.04-.43-.05-.8-.18-1.15-.44-.65-.48-.71-1.86-.08-2.36.34-.27.73-.46,1.18-.48.7-.02,1.4-.09,2.08.14.06.02.13,0,.19,0,.14-.38.14-.47-.12-.58-.53-.22-.95-.61-1.38-.96-.23-.18-.29-.19-.54-.03-.1.06-.21.13-.28.22-.29.33-.65.56-1.03.77-.23.12-.44.26-.67.37-.63.29-1.26.59-1.91.84-.48.19-.99.32-1.49.49-.06.02-.1.08-.14.12.02.06.02.1.03.14.12.36.09.55-.1.64-.2.09-.36,0-.56-.33-.23-.39-.28-.39-.76-.34-.48.05-.96.07-1.44.09-.15,0-.31-.05-.44,0-.21.08-.07.28-.08.43-.02.21-.12.36-.3.38-.18.03-.31-.07-.39-.23-.06-.12-.1-.25-.13-.38-.07-.26-.23-.38-.51-.43-.57-.1-1.13-.23-1.68-.37-.33-.08-.4-.07-.57.26-.08.15-.16.31-.26.45-.1.13-.25.15-.4.08-.16-.07-.21-.22-.17-.37.03-.14.1-.27.16-.41.1-.27.08-.37-.16-.5-.81-.44-1.53-.99-2.21-1.6-1.06-.93-1.87-2.04-2.37-3.36-.26-.69-.47-1.39-.44-2.15.03-.7-.03-1.4-.05-2.09,0-.21-.03-.44.03-.64.25-.77.46-1.55.81-2.27.41-.87.93-1.69,1.53-2.46.87-1.11,1.8-2.12,3.01-2.88,1.23-.77,2.54-1.27,3.97-1.49,1.02-.16,2.06-.22,3.09-.09.44.06.88.14,1.3.25.82.22,1.58.58,2.29,1.06.42.29.79.59,1.08,1.01.18.26.4.49.64.76.51-.6.96-1.2,1.58-1.64.62-.44,1.27-.78,2.02-1-.04-.09-.06-.18-.11-.23-.37-.37-.73-.76-1.11-1.11-.94-.85-1.98-1.57-3.08-2.19-.13-.07-.26-.2-.32-.34-.08-.2-.08-.42-.11-.63-.04-.21-.05-.43-.12-.62-.63-1.56-1.27-3.11-1.9-4.66-.15-.37-.3-.75-.45-1.12-.05-.11-.13-.21-.23-.37-.11.15-.19.23-.26.33-.94,1.4-1.89,2.81-2.83,4.22-.15.22-.26.42-.25.7.01.33-.16.48-.5.49-.31.01-.62.01-.93,0-.8-.02-1.58.07-2.36.23-.67.14-1.33.32-1.98.52-.42.13-.82.33-1.23.48-.13.05-.31.11-.41.06-.27-.13-.52-.31-.76-.5-.2-.16-.35-.37-.54-.54-.72-.61-1.45-1.2-2.17-1.8-.86-.71-1.71-1.43-2.57-2.14-.06-.05-.14-.08-.27-.15ZM33.3,22.77c-.06.9.07,1.71.38,2.48.17.41.4.79.57,1.19.11.26.28.45.51.6.35.23.68.48,1.03.71.65.42,1.26.92,1.99,1.22.92.38,1.86.71,2.84.88.69.12,1.35.36,2.06.38.41.01.83.09,1.24.16.9.15,1.79.15,2.68-.04.4-.09.77-.28,1.04-.58.62-.67,1.21-1.37,1.81-2.06.2-.23.19-.3-.04-.5-.6-.54-1-1.21-1.37-1.92-.5-.93-.39-1.9-.32-2.87.01-.15.08-.32.16-.45.26-.4.53-.81.92-1.11.59-.46,1.23-.82,1.97-.97.38-.08.39-.11.31-.48-.09-.39-.2-.78-.25-1.18-.09-.68-.24-1.35-.44-2-.08-.27-.19-.54-.35-.77-.39-.56-.77-1.13-1.28-1.6-.76-.71-1.64-1.22-2.61-1.55-.84-.29-1.72-.37-2.62-.28-1.21.11-2.39.3-3.51.82-.85.39-1.64.88-2.31,1.52-.57.54-1.11,1.13-1.67,1.69-.12.12-.24.25-.35.39-.72.95-1.22,2.02-1.74,3.08-.18.37-.31.77-.42,1.17-.2.7-.27,1.42-.24,2.08ZM35.62,61.65c.16-.1.27-.14.36-.22.53-.45.95-1.02,1.55-1.39.04-.03.07-.08.11-.12.15-.13.3-.27.45-.4.16-.14.34-.27.49-.41.17-.17.33-.35.5-.52.32-.32.69-.59.99-.94.38-.44.63-.93.77-1.48.07-.28.05-.52-.08-.78-.31-.62-.63-1.24-.92-1.88-.47-1.04-.93-2.08-1.35-3.14-.1-.25-.08-.6.02-.86.15-.41.38-.8.62-1.17.38-.6.78-1.19,1.17-1.78.11-.16.18-.34.05-.52-.08-.11-.18-.2-.29-.27-.45-.3-.83-.68-1.2-1.07-.21-.21-.32-.44-.31-.75.01-.57.23-1.08.44-1.58.36-.83.64-1.71,1.23-2.43.16-.2.07-.35-.19-.39-.22-.03-.45-.05-.67-.09-.49-.09-.97-.18-1.45-.29-.53-.13-1.09-.22-1.58-.44-.64-.29-1.29-.34-1.97-.3-.18,0-.37.08-.53.17-.39.23-.72.52-.92.93-.36.73-.78,1.44-1.09,2.2-.48,1.16-1.03,2.3-1.34,3.53-.06.25-.18.48-.27.71-.1.25-.22.49-.29.75-.36,1.28-.7,2.56-1.05,3.84-.17.62-.34,1.24-.51,1.86-.22.77-.45,1.54-.65,2.32-.22.84-.44,1.68-.78,2.49-.04.1-.05.21-.07.31-.11.58-.21,1.16-.32,1.73-.09.46-.19.92-.27,1.38-.08.42.03.6.45.69.29.06.58.09.87.12.56.07,1.11.19,1.67.2,1.75.03,3.5.01,5.24,0,.41,0,.49-.06.57-.47.13-.64.22-1.29.35-1.93.23-1.19.48-2.39.72-3.58.15-.77.29-1.55.43-2.33.16-.84.33-1.68.49-2.52.18-.92.34-1.84.52-2.76.16-.81.33-1.63.5-2.44.02-.1.06-.21.12-.3.07-.1.14-.25.31-.18.16.06.17.19.15.33-.08.43-.15.87-.24,1.3-.15.73-.32,1.46-.46,2.2-.22,1.2-.41,2.4-.63,3.59-.17.91-.39,1.8-.57,2.71-.1.5-.2,1-.3,1.5-.14.76-.27,1.53-.41,2.29-.14.74-.3,1.47-.45,2.2-.02.09.02.19.03.36ZM51.71,25.04c-.12.29-.23.54-.33.8-.25.69-.59,1.33-1.03,1.9-.64.83-1.33,1.62-2.03,2.4-.62.69-1.42,1.04-2.36,1.04-.79,0-1.58.04-2.37-.09-.66-.12-1.34-.12-1.99-.26-.97-.2-1.93-.47-2.89-.71-.77-.2-1.5-.53-2.16-.96-.82-.54-1.61-1.12-2.42-1.67-.53-.36-1.08-.68-1.76-.54-.42.09-.84.18-1.23.35-.94.4-1.38,1.17-1.41,2.16-.04,1.15.07,2.28.42,3.38.14.43.24.89.55,1.24.63.7,1.34,1.31,2.12,1.85.79.54,1.6,1.02,2.46,1.45,1.08.55,2.21.89,3.36,1.2.96.26,1.95.33,2.94.4.88.07,1.74-.08,2.6-.16.97-.09,1.9-.37,2.81-.67,1.38-.45,2.67-1.1,3.89-1.9,1.42-.93,2.62-2.1,3.71-3.38.39-.45.37-.46-.12-.82-.02-.02-.04-.03-.07-.05-.82-.63-1-1.82-.33-2.56.16-.18.35-.33.53-.49.08-.08.17-.15.31-.26-.2-.08-.33-.15-.47-.19-.32-.08-.59-.25-.83-.47-.38-.34-.73-.72-.96-1.18-.18-.36-.33-.73-.51-1.1-.11-.24-.19-.5-.46-.72ZM73.37,58.28c.11-.21.18-.35.25-.48.16-.28.28-.59.5-.82.54-.58,1.11-1.13,1.68-1.68.54-.52,1.13-.99,1.65-1.54.81-.84,1.57-1.73,2.35-2.6.25-.28.47-.58.7-.88.36-.46.82-.85,1.02-1.43.02-.06.07-.11.12-.16.49-.49.85-1.07,1.2-1.66.18-.31.39-.61.55-.93.24-.49.46-.99.67-1.5.08-.19.14-.36.32-.49.11-.08.22-.22.25-.35.12-.55.22-1.1.32-1.66.07-.38.13-.77.19-1.15.04-.25.09-.49.14-.8-.25-.05-.46-.09-.66-.12-.18-.03-.37-.03-.56-.07-.54-.11-1.07-.23-1.61-.33-.15-.03-.35-.06-.46,0-.45.27-.92.5-1.25.94-.57.76-1.15,1.52-1.72,2.28-.6.79-1.16,1.62-1.79,2.38-.54.65-1.1,1.28-1.58,1.98-.39.58-.83,1.13-1.31,1.63-.85.9-1.71,1.78-2.68,2.56-.31.25-.62.52-.93.77-.16.13-.2.27-.13.46.39,1.03.49,2.11.54,3.2,0,.19.07.29.24.36.2.08.41.17.56.31.39.38.8.75,1.06,1.26.08.16.21.3.36.51ZM88.21,19.32c.12-.16.24-.26.31-.39.24-.46.46-.94.7-1.41.15-.3.31-.59.5-.87.3-.45.78-.46,1.08-.01.12.18.2.41.26.63.1.37.17.76.26,1.14.02.09.07.18.15.35.12-.16.21-.25.27-.36.13-.22.24-.45.37-.67.12-.2.28-.38.55-.33.26.05.37.26.42.49.04.2.07.4.07.6.02.58.02,1.16.03,1.73,0,.39.03.41.42.49.67.14,1.34.28,2.01.43.35.08.45,0,.4-.37-.04-.35-.13-.69-.17-1.03-.16-1.34-.62-2.58-1.23-3.77-.48-.93-1.1-1.74-2.07-2.24-.56-.29-1.11-.6-1.73-.74-1.25-.28-2.5-.29-3.76-.13-.98.13-1.93.32-2.8.82-.07.04-.14.07-.22.1-.89.38-1.66.94-2.34,1.61-.42.41-.77.9-1.16,1.34-.59.67-1.09,1.4-1.47,2.2-.24.51-.46,1.03-.69,1.54-.29.64-.3,1.33-.33,2.01,0,.11.05.23.08.38.16-.04.29-.06.41-.11.14-.05.26-.13.4-.19,1.72-.74,3.48-1.34,5.31-1.7.49-.1.84-.3,1.09-.72.06-.09.12-.18.18-.27.37-.68.8-1.33,1.07-2.06.04-.11.11-.21.19-.31.29-.34.62-.34.86.03.14.22.2.49.28.74.1.31.08.66.29,1.02ZM81.71,24.68c.13.13.24.24.35.36.46.48.92.95,1.09,1.62.1.38.19.75.3,1.13.24.86.34,1.73.15,2.62-.05.26,0,.35.24.42.35.1.7.2,1.05.26.69.12,1.38.22,2.06.32.25.04.51.09.76.07.43-.03.85-.09,1.27-.16.63-.11,1.27-.22,1.89-.4.66-.18,1.3-.42,1.91-.72.87-.43,1.71-.91,2.41-1.58.12-.12.23-.27.28-.43.32-1.15.56-2.32.6-3.52.01-.38-.04-.47-.4-.6-.39-.14-.8-.24-1.19-.36-.95-.3-1.92-.48-2.93-.46-.74.02-1.48-.02-2.22.02-.68.03-1.37.09-2.04.2-1.07.17-2.13.39-3.2.59-.61.11-1.21.22-1.82.33-.19.04-.4.07-.58.29ZM49.54,38.89c-.14.16-.12.32-.04.46.2.36.39.75.65,1.06.59.69,1.01,1.48,1.42,2.28.16.31.28.64.41.96.08.21.04.4-.14.54-.13.1-.25.21-.39.28-.52.28-1.05.54-1.57.81-.26.13-.27.23-.09.47.04.05.08.1.13.15.47.46.95.9,1.4,1.38.45.48.71,1.03.52,1.72-.02.08-.03.16-.03.24-.02.67-.1,1.33-.29,1.98-.04.15-.05.32-.07.48-.03.2-.03.4-.08.59-.07.28-.03.53.15.76.37.47.75.94,1.12,1.41.63.81,1.44,1.43,2.19,2.13.02.02.04.03.07.05.17.14.35.13.51,0,.07-.06.14-.13.2-.2.38-.47.76-.94,1.14-1.41.58-.72,1.14-1.46,1.72-2.17.22-.27.47-.52.74-.74.66-.55.71-1.37.11-1.97-.1-.09-.2-.18-.28-.29-.38-.45-.75-.91-1.13-1.35-.42-.48-.87-.94-1.2-1.5-.01-.02-.04-.04-.06-.06-.21-.28-.43-.55-.62-.84-.17-.28-.35-.53-.63-.71-.17-.11-.31-.26-.44-.41-.6-.7-1.19-1.42-1.79-2.12-.71-.82-1.41-1.65-2.16-2.43-.45-.46-.7-1.04-1.08-1.55h-.38ZM42.89,46.85s.02,0,.03,0c-.03.62-.06,1.23-.08,1.85-.02.9.02,1.8-.17,2.69-.19.89-.3,1.8-.49,2.69-.15.71-.15.79.58.95.63.14,1.26.29,1.9.34.6.05,1.21.04,1.8-.04.79-.11,1.51-.45,2.16-.93.17-.13.25-.24.2-.46-.17-.88-.31-1.77-.46-2.66-.1-.6-.18-1.19-.28-1.79-.13-.82-.28-1.64-.37-2.46-.14-1.38-.26-2.75-.21-4.14,0-.2-.01-.4-.03-.6-.01-.21-.12-.33-.32-.41-.52-.21-1.03-.45-1.55-.67-.11-.05-.27-.09-.38-.05-.3.11-.6.12-.91.09-.12-.01-.3.03-.35.11-.26.37-.6.61-1.01.77-.19.07-.25.23-.22.43.03.17.07.34.07.52.02,1.26.04,2.53.06,3.79ZM55.93,28.06c.41-.07.82-.14,1.23-.22.17-.03.3-.12.34-.3.04-.18-.03-.32-.18-.41-.44-.25-.77-.62-1.14-.96-.25-.23-.47-.49-.58-.81-.31-.87-.48-1.74-.23-2.68.33-1.26,1.12-2.11,2.23-2.71.34-.19.36-.18.27-.55-.23-.98-.52-1.94-.93-2.87-.42-.95-.9-1.86-1.48-2.72-.15-.22-.31-.44-.47-.65-.15-.21-.33-.26-.59-.2-.52.12-.92.42-1.32.74-.81.63-1.35,1.45-1.69,2.41-.07.18-.09.4-.06.59.08.57.19,1.14.3,1.7.09.47.23.94.28,1.42.08.69.1,1.39.14,2.09.04.87.07,1.74.39,2.57.32.83.67,1.64,1.16,2.38.27.4.59.79,1.08.93.41.12.84.16,1.27.24ZM102.44,66.49s.07-.01.11-.02c.02-.05.05-.09.05-.14,0-.52,0-1.05-.04-1.57-.02-.33-.12-.66-.17-.99-.03-.23.09-.42.28-.48.18-.06.33.01.45.24.21.43.41.87.62,1.31.24.52.46,1.06.75,1.56.18.32.45.6.71.87.18.18.43.15.65.08.21-.07.22-.28.23-.47.03-.89-.03-1.78-.21-2.65-.3-1.44-.83-2.8-1.6-4.06-.06-.1-.12-.21-.17-.32-.24-.64-.62-1.18-.98-1.75-.43-.68-.87-1.37-1.17-2.11-.32-.8-.61-1.62-.81-2.48-.23-.96-.44-1.93-.7-2.89-.29-1.08-.36-2.2-.57-3.29-.21-1.09-.28-2.21-.64-3.28-.19-.58-.27-1.2-.38-1.81-.15-.78-.44-1.52-.72-2.26-.13-.35-.25-.72-.45-1.03-.33-.52-.72-1-1.1-1.49-.05-.06-.18-.06-.27-.09-.03.08-.08.17-.07.25.03.21.09.42.15.63.09.29.21.58.29.88.1.35.18.7.28,1.05.1.37.24.74.32,1.12.14.67.21,1.36.38,2.02.25.99.42,1.99.53,3,.06.49.09.99.18,1.48.13.77.35,1.51.37,2.3,0,.4.05.8.11,1.2.16.94.34,1.87.52,2.81.09.45.21.89.33,1.33.19.75.38,1.51.57,2.26.06.22.12.44.16.66.15.86.28,1.72.43,2.58.08.42.17.84.28,1.26.04.14.13.27.21.43.1-.07.16-.1.2-.15.57-.65.83-1.97.18-2.85-.06-.08-.14-.15-.15-.23-.02-.12-.02-.29.05-.36.07-.08.26-.12.35-.08.16.08.32.21.41.36.16.28.26.59.38.89.17.45.05.9-.01,1.35-.1.7-.46,1.25-.96,1.72-.27.26-.29.28-.17.65.21.64.4,1.28.6,1.92.07.21.15.42.22.63ZM48.98,55.13c-.13.05-.25.08-.35.13-.31.15-.62.32-.93.46-.58.26-1.18.44-1.83.42-.32,0-.65.03-.97,0-.58-.06-1.17-.14-1.75-.25-.34-.06-.67-.19-1-.29-.32-.09-.34-.07-.47.24-.25.61-.38,1.26-.8,1.79-.14.18-.11.38.01.56.14.2.28.39.41.6.54.82,1.07,1.64,1.61,2.46.2.3.32.33.54.12.65-.58,1.3-1.17,1.93-1.77.45-.44.63-.48,1.15-.12.67.47,1.34.94,2.02,1.4.13.09.27.15.41.23.2-.48.22-5.32,0-5.98ZM95.54,16.09c.04.11.08.21.11.31.11.3.23.6.34.9.41,1.2.65,2.43.79,3.68.02.2.1.27.29.23.64-.14,1.28-.27,1.92-.43.16-.04.33-.13.45-.24.24-.23.47-.48.68-.74.52-.64,1.03-1.3,1.56-1.95.15-.18.17-.36.08-.56-.22-.47-.42-.96-.67-1.41-.33-.61-.7-1.2-1.06-1.8-.15-.24-.31-.47-.5-.68-.09-.1-.25-.21-.36-.2-.28.02-.57.06-.82.17-.38.16-.75.36-1.09.61-.66.49-1.28,1.02-1.6,1.82-.04.1-.08.2-.12.3ZM41.26,54.94c.08-.21.14-.34.17-.48.09-.4.19-.81.26-1.22.13-.68.25-1.36.36-2.05.08-.51.19-1.02.17-1.55-.08-2.4.1-4.8-.11-7.2-.07-.82-.19-1.62-.32-2.42-.06-.38-.49-.52-.77-.25-.19.18-.35.41-.48.64-.17.29-.28.61-.46.9-.43.71-.68,1.48-.92,2.26-.1.32-.03.58.18.81.28.31.52.65.91.83.12.05.2.17.3.27.5.5.54.81.16,1.42-.27.42-.56.82-.83,1.24-.29.45-.55.92-.82,1.38-.16.27-.15.53,0,.8.07.13.11.27.17.41.28.68.47,1.39.86,2.03.24.4.38.86.57,1.28.09.2.17.39.28.58.06.1.17.18.31.32ZM49.86,55.64c.08-.08.11-.11.13-.14.05-.1.09-.19.13-.29.35-.88.52-1.8.66-2.73.07-.46.14-.92.22-1.38.06-.33.13-.65.18-.98.05-.33.05-.67.15-.99.19-.6-.02-1.05-.42-1.45-.59-.6-1.19-1.19-1.79-1.79-.34-.34-.31-.64.12-.86.65-.35,1.3-.69,1.95-1.04.25-.14.28-.22.16-.48-.03-.06-.06-.12-.09-.18-.5-.96-.97-1.94-1.53-2.87-.35-.59-.73-1.16-1.18-1.67-.18-.2-.28-.23-.53-.12-.24.11-.3.2-.26.47.05.34.13.68.17,1.03.09.79.23,1.59.24,2.39.02,1.49.05,2.97.24,4.45.09.7.16,1.4.27,2.1.03.21.08.42.11.63.09.63.17,1.27.28,1.9.1.59.25,1.18.37,1.76.05.25.09.5.12.75.05.4.08.8.13,1.19.01.09.1.18.17.3ZM94.67,38.35c-.73.3-1.36.6-2.01.83-.64.23-1.3.42-1.97.58-.67.16-1.35.24-2.08.37.09.17.14.3.21.41.29.45.6.89.86,1.36.43.79.94,1.53,1.31,2.36.39.87.85,1.7,1.29,2.55.11.22.22.43.34.64.04.07.11.13.19.21.05-.11.09-.18.12-.25.34-.74.42-1.55.63-2.33.24-.87.45-1.73.58-2.63.14-.98.4-1.94.46-2.94.01-.21.06-.43.08-.64.01-.14,0-.28,0-.52ZM98.6,29.68c.15.07.24.14.33.16.5.09,1,.17,1.51.24.1.02.21,0,.32,0,.43,0,.71-.19.85-.6.08-.23.18-.45.26-.68.25-.77.53-1.52.71-2.3.18-.82.26-1.67.38-2.5.06-.4-.1-.6-.5-.67-1.13-.19-2.25-.02-3.37.08-.1,0-.2.09-.33.15.08.14.13.23.19.31.24.29.37.62.43.98.07.45.14.9.15,1.35,0,.44-.08.88-.09,1.32,0,.54-.21,1.02-.47,1.48-.12.21-.23.42-.38.68ZM65.98,60.16c0-.16,0-.31,0-.45-.04-.52.17-.94.58-1.21.32-.22.56-.4.4-.83-.01-.03,0-.08,0-.12.08-.25-.06-.39-.24-.54-.47-.42-.96-.82-1.27-1.39-.21-.38-.32-.38-.66-.12-1,.77-1.9,1.6-2.45,2.78-.37.8-.55,1.62-.58,2.48,0,.08.04.16.07.26.05-.03.08-.04.09-.06.02-.03.03-.07.05-.11.32-.86.74-1.67,1.34-2.37.19-.22.35-.28.51-.16.16.11.22.37.1.58-.06.1-.14.19-.22.29-.56.67-.95,1.42-1.09,2.3-.02.13-.06.3,0,.39.17.29.09.52-.03.79-.19.45-.03.88.37,1.11.35.2.57.08.59-.32.04-1.2.47-2.27,1.08-3.29.06-.09.12-.18.19-.26.24-.23.5-.18.64.12.03.07.06.14.1.23.15-.03.27-.06.43-.09ZM61.05,52.37c-.27-.19-.56-.18-.82-.26-.21-.07-.36.02-.48.18-.39.51-.79,1.02-1.2,1.52-.41.51-.84,1.01-1.25,1.52-.44.54-.87,1.09-1.3,1.64-.17.22-.15.29.05.48.13.12.27.23.38.36.43.49.49.48.87-.07.56-.82,1.14-1.63,1.71-2.44.59-.83,1.2-1.65,1.79-2.48.1-.14.16-.3.25-.46ZM34.02,63.19s0,0,0,0c.03,0,.05,0,.08,0,.27,0,.38-.12.4-.44.02-.22-.04-.28-.36-.3-.39-.03-.78-.04-1.17-.05-1.97-.06-3.95.04-5.9-.32-.07-.01-.13,0-.2-.02-.18-.02-.27.07-.31.24-.04.17.02.3.2.33.26.05.53.12.79.13.83.05,1.66.08,2.49.12.04,0,.08,0,.12,0,1.28.1,2.57.2,3.85.3ZM96.1,33.18c.59,0,1.02-.19,1.4-.52.26-.23.29-.52.08-.75-.84-.93-2.03-.8-2.7-.06-.25.28-.26.5,0,.78.35.37.81.5,1.22.56ZM80.73,28.88c.04-.13.09-.2.09-.28,0-.4.03-.81-.03-1.2-.06-.37-.17-.74-.33-1.07-.15-.29-.39-.54-.62-.78-.08-.09-.26-.16-.35-.13-.27.1-.53.24-.78.39-.05.03-.06.17-.05.26.02.12.08.23.12.34.37.85.94,1.56,1.59,2.21.1.1.22.17.37.27ZM72.39,61.67c.24-.17.22-.34.14-.53-.34-.73-.68-1.46-1.38-1.94-.1-.07-.17-.17-.27-.25-.22-.17-.44-.36-.68-.48-.54-.29-.55-.37-.06-.75.17-.13.31-.33.44-.51.07-.09.08-.22-.04-.27-.06-.03-.17.01-.24.06-.07.04-.1.12-.16.18-.41.47-.97.59-1.52.32-.21-.1-.4-.22-.61-.31-.08-.04-.17-.04-.25-.06-.09.22,0,.34.14.44.11.08.23.14.33.23.13.12.12.24-.04.32-.08.05-.18.06-.26.11-.04.03-.08.12-.07.17.01.05.09.1.14.11.06.02.13,0,.2-.01.81-.09,1.56.1,2.21.57.84.6,1.5,1.38,1.87,2.36.03.07.07.14.11.24ZM64.38,63.02c-.16.37-.18.53-.14.8.02.15.06.34,0,.47-.14.31-.01.49.23.64.19.12.4.22.61.28.44.13,1-.18,1.2-.64-.33-.21-.69-.4-.99-.65-.32-.26-.59-.57-.91-.9ZM70.61,64.26c.32-.19.33-.2.36-.46.12-.9-.33-1.59-.91-2.19-.57-.59-1.35-.86-2.14-1.06-.22-.05-.45-.08-.68-.09-.12,0-.24.07-.24.22,0,.14.12.17.23.17.7.03,1.33.32,1.95.59.24.1.48.27.64.47.26.34.47.72.68,1.09.13.22.15.45.1.7-.03.16,0,.33,0,.57ZM47.35,41.09c.02-.13.06-.22.05-.31-.05-.36-.09-.72-.16-1.07-.14-.68-.15-.67-.83-.47-.03,0-.05.01-.08.02-.3.11-.58.97-.4,1.24.01.02.03.04.05.06.39.29.81.51,1.36.54ZM96.79,24.87s-.07.06-.07.08c-.07.57-.13,1.14-.19,1.72-.03.28-.07.56-.1.84-.02.23-.05.45-.05.68,0,.19.25.42.39.4.19-.02.19-.2.24-.33.02-.04.01-.08.03-.12.2-.63.16-1.28.13-1.92-.02-.38-.14-.76-.23-1.13-.02-.08-.1-.14-.15-.21ZM42.47,39.79c.07.48.12.89.18,1.29,0,.01,0,.03.01.04.09.19.19.23.38.13.08-.04.16-.1.22-.17.25-.3.39-.67.46-1.05.05-.25-.04-.34-.31-.34-.29,0-.58.05-.94.09ZM45.25,39.53c-.14,0-.23,0-.32,0-.35.04-.43.12-.48.47-.01.08-.04.16-.02.24.02.09.05.23.12.26.07.03.21,0,.29-.06.28-.21.42-.5.41-.91Z"/>
        <path class="cls-15" d="M25.41,73.59c.36.01.71-.01,1.04-.16.03.05.05.14.08.14.13,0,.26-.02.45-.03-.06.1-.08.18-.13.22-.34.32-.76.43-1.2.46-.07,0-.14-.05-.28-.1.29-.14.52-.24.75-.35l-.02-.06c-.22-.04-.45-.08-.67-.12Z"/>
        <path class="cls-7" d="M95.57,38.25c.18.34.28.71.38,1.08.13.46.2.95.37,1.4.38.96.41,1.99.63,2.99.17.76.32,1.52.46,2.29.08.47.13.96.19,1.43.03.24.06.48.09.72.09.66.2,1.33.29,1.99.1.8.18,1.6.27,2.4.02.13.04.27.09.39.23.5.26,1.04.38,1.56.23,1.06.39,2.14.76,3.16.23.65.33,1.33.39,2.01.04.39.11.77.18,1.15.06.34.14.68.21,1.02.03.14.06.29.1.43.15.46.31.91.45,1.38.34,1.12.68,2.23,1,3.35.19.67.36,1.35.54,2.02.1.36.24.71.32,1.08.25,1.1.49,2.2.73,3.3.11.5.28.99.33,1.49.09.89.29,1.74.46,2.61.19.99.39,1.97.56,2.97.13.74.19,1.49.33,2.23.11.58.28,1.15.41,1.72.08.35.15.71.16,1.07.04.94.26,1.86.41,2.78.04.24.06.48.09.72.06.57.11,1.15.17,1.72.05.49.12.99.13,1.48.02,1.24.03,2.47-.01,3.71-.02.65-.14,1.31-.22,1.96,0,.08-.04.16-.06.23-.1.34-.3.5-.67.5-1.44,0-2.87.05-4.31.07-1.33.02-2.66.02-3.99.03-.53,0-1.03.14-1.54.28-.54.14-1.1.22-1.66.33-.97.19-1.95.38-2.92.57-1,.19-2,.38-3.01.55-.32.05-.64.02-.97.05-.28.02-.56.05-.83.12-.73.2-1.47.32-2.21.41-1.36.16-2.73.22-4.1.2-1.28-.02-2.55-.06-3.83-.12-.33-.02-.66-.12-.97-.23-.53-.18-1.06-.38-1.58-.6-.32-.13-.37-.27-.31-.61.02-.11.04-.21.07-.31.39-1.13.78-2.25,1.17-3.38.16-.47.3-.95.44-1.42.19-.62.39-1.23.54-1.85.21-.86.39-1.73.58-2.59.07-.3.12-.61.22-.9.27-.74.32-1.52.44-2.29.14-.86.25-1.72.52-2.56.22-.7.4-1.42.55-2.14.19-.92.32-1.85.5-2.77.16-.88.36-1.76.52-2.64.15-.82.26-1.64.41-2.46.13-.71.31-1.41.44-2.13.25-1.32.47-2.64.71-3.96.1-.57.24-1.13.37-1.69.21-.91.45-1.82.64-2.74.22-1.05.4-2.11.58-3.17.13-.75.22-1.51.32-2.27,0-.07,0-.14.02-.2.3-1,.26-2.02.22-3.04-.02-.54-.09-1.07-.11-1.6-.01-.25.04-.51.03-.76-.05-.79-.12-1.58-.18-2.37-.02-.24-.03-.48-.06-.72-.02-.23.04-.42.18-.6.73-.91,1.27-1.93,1.84-2.93.05-.09.09-.21.17-.27.52-.41.65-1.03.87-1.6.14-.36.22-.75.31-1.12.04-.17.1-.34.1-.51,0-.71.22-1.38.34-2.06.06-.37.1-.38.47-.39.24,0,.48-.01.72-.04.21-.03.37,0,.49.18.44.63.88,1.25,1.3,1.89.21.31.4.64.59.96.17.3.33.61.49.92.09.17.16.34.25.51.51.99,1.03,1.98,1.53,2.97.14.27.22.58.33.86.1.26.22.52.54.52.31,0,.49-.23.6-.47.29-.66.59-1.33.69-2.05.12-.81.33-1.6.6-2.38.09-.28.12-.58.17-.87.05-.3.07-.62.14-.91.25-.98.3-1.99.42-2.99.04-.34.08-.68.13-1.03l.11-.02Z"/>
        <path class="cls-10" d="M49.69,64.46c-.08.54.02,1.08-.16,1.6-.18.53-.34,1.07-.64,1.55-.23.36-.41.75-.64,1.12-.13.21-.31.4-.47.6-.16.2-.18.36.02.53.48.38.73.91,1.02,1.43.39.7.71,1.42.95,2.17.27.87.53,1.74.77,2.62.22.8.4,1.61.59,2.42.27,1.21.53,2.43.8,3.65.09.4.22.8.3,1.21.09.49.14.98.2,1.47,0,.05-.01.11,0,.16.24.54.2,1.13.31,1.69.03.13.04.27.04.4,0,1.21,0,2.42,0,3.63,0,.22-.06.45-.12.67-.03.11-.11.23-.2.29-.26.18-.54.35-.82.5-.51.27-1.02.53-1.53.8-.06.03-.11.07-.18.09-.57.2-1.14.39-1.71.58-.2.07-.41.13-.6.23-.62.3-1.25.53-1.94.64-.39.06-.78.21-1.17.28-.46.08-.92.15-1.39.18-.44.03-.49-.07-.4-.49.14-.67.3-1.33.41-2,.08-.49.05-.99.14-1.48.18-.96.04-1.93.13-2.89.05-.5,0-.98-.01-1.47-.01-.69.04-1.37-.01-2.06-.07-.9-.09-1.79-.13-2.69-.02-.44-.06-.88-.11-1.32-.05-.42-.22-.83-.3-1.25-.09-.46-.11-.93-.22-1.38-.15-.63-.32-1.25-.52-1.85-.14-.42-.33-.82-.52-1.22-.19-.39-.11-.72.18-.99.35-.33.74-.62,1.11-.92.09-.08.2-.14.27-.24.04-.06.06-.2.02-.25-.05-.07-.17-.12-.27-.13-.07,0-.15.05-.22.09-.64.34-1.14.86-1.6,1.4-.18.21-.18.57-.25.87-.03.12,0,.24-.03.36-.2.93-.41,1.86-.6,2.79-.17.82-.33,1.65-.49,2.48-.11.56-.24,1.12-.35,1.69-.04.21-.04.43-.09.63-.29,1.11-.57,2.23-.91,3.34-.35,1.17-.74,2.32-1.14,3.48-.16.47-.4.91-.59,1.37-.12.28-.18.6-.32.87-.47.92-.98,1.82-1.46,2.73-.13.25-.32.32-.59.32-.89,0-1.76-.15-2.63-.3-.5-.09-1-.16-1.5-.28-.45-.11-.89-.28-1.34-.41-1.11-.32-2.2-.71-3.26-1.15-.3-.12-.58-.29-.85-.45-.44-.26-.87-.53-1.3-.8-.09-.06-.18-.12-.25-.2-.17-.18-.19-.3-.04-.49.33-.42.67-.84,1-1.26.11-.14.21-.27.31-.41.38-.52.76-1.04,1.14-1.55.59-.78,1.14-1.59,1.58-2.47.24-.48.57-.91.83-1.38.27-.49.53-1,.76-1.51.31-.67.63-1.33.82-2.05.2-.78.45-1.55.61-2.33.24-1.21.4-2.43.65-3.63.11-.54.01-1.11.25-1.62.01-.02,0-.05,0-.08.04-.78.08-1.55.12-2.33,0-.16.01-.33.08-.47.05-.11.18-.22.29-.24.07-.01.2.11.26.2.28.43.55.86.81,1.3.29.48.71.83,1.14,1.18.18.15.39.22.64.2.17-.01.35,0,.52,0,.61-.01,1.01-.44,1.03-1.05.02-.77-.12-1.52-.19-2.28-.12-1.13-.52-2.19-.67-3.3-.04-.32-.15-.62-.22-.94-.09-.34-.04-.67.11-.98.02-.05.07-.1.07-.15.01-.48.33-.74.66-1.03.47-.4.88-.86,1.34-1.28.51-.47,1.05-.91,1.57-1.38.42-.38.82-.78,1.22-1.17.32-.31.43-.3.67.08.56.84,1.12,1.67,1.68,2.51.19.29.37.59.57.88.24.35.38.38.71.12.21-.16.41-.34.61-.52.54-.5,1.08-1,1.63-1.5.27-.24.38-.25.68-.06.35.23.68.48,1.02.72.25.18.51.34.77.51.38.25.77.49,1.14.75.11.08.2.23.22.36.08.65.12,1.3.18,1.96Z"/>
        <path class="cls-1" d="M74.18,3.15c.13.07.21.1.27.15.86.71,1.71,1.43,2.57,2.14.72.6,1.45,1.19,2.17,1.8.19.16.34.38.54.54.24.19.49.37.76.5.1.05.28-.01.41-.06.41-.15.81-.35,1.23-.48.65-.2,1.31-.38,1.98-.52.78-.16,1.56-.25,2.36-.23.31,0,.62,0,.93,0,.34-.02.52-.16.5-.49,0-.28.1-.49.25-.7.95-1.4,1.89-2.81,2.83-4.22.06-.1.14-.18.26-.33.1.15.18.25.23.37.16.37.3.75.45,1.12.64,1.55,1.28,3.1,1.9,4.66.08.19.09.41.12.62.04.21.04.44.11.63.05.13.19.26.32.34,1.11.62,2.14,1.34,3.08,2.19.39.35.75.73,1.11,1.11.05.05.06.14.11.23-.75.22-1.4.56-2.02,1-.62.44-1.07,1.04-1.58,1.64-.23-.28-.46-.5-.64-.76-.28-.42-.66-.72-1.08-1.01-.71-.48-1.47-.84-2.29-1.06-.43-.12-.86-.2-1.3-.25-1.03-.14-2.06-.07-3.09.09-1.42.22-2.74.72-3.97,1.49-1.2.76-2.14,1.77-3.01,2.88-.6.77-1.11,1.59-1.53,2.46-.34.72-.56,1.51-.81,2.27-.06.2-.03.43-.03.64.02.7.08,1.4.05,2.09-.03.76.18,1.46.44,2.15.5,1.32,1.31,2.42,2.37,3.36.69.61,1.41,1.16,2.21,1.6.24.13.27.22.16.5-.05.14-.12.27-.16.41-.04.16.01.3.17.37.15.07.3.05.4-.08.1-.14.18-.3.26-.45.16-.32.24-.34.57-.26.56.14,1.12.28,1.68.37.28.05.44.16.51.43.04.13.07.26.13.38.08.15.2.25.39.23.17-.02.28-.18.3-.38.01-.15-.12-.35.08-.43.13-.05.29,0,.44,0,.48-.02.96-.04,1.44-.09.47-.05.52-.05.76.34.2.32.36.42.56.33.19-.09.22-.28.1-.64-.01-.04-.02-.08-.03-.14.04-.04.09-.1.14-.12.49-.16,1-.29,1.49-.49.65-.26,1.28-.55,1.91-.84.23-.11.44-.25.67-.37.38-.2.74-.44,1.03-.77.08-.09.18-.16.28-.22.25-.16.31-.15.54.03.44.35.85.74,1.38.96.26.11.26.19.12.58-.06,0-.13.03-.19,0-.68-.23-1.38-.16-2.08-.14-.44.02-.84.2-1.18.48-.63.51-.57,1.89.08,2.36.35.25.72.38,1.15.44.53.06,1.05.03,1.56-.04.13-.02.27-.05.39-.1.75-.3,1.03-.73,1.01-1.56,0-.19-.04-.38-.08-.56-.08-.35.1-.66.16-.98,0-.04.13-.1.19-.09.39.02.62.22.74.6.03.09.05.2.12.25.08.07.22.15.31.13.09-.02.16-.15.23-.24.02-.03.01-.08.02-.12.06-.42.19-.49.65-.3-.03.3-.21.54-.36.78-.52.8-1.08,1.57-1.73,2.27-.46.5-.98.96-1.47,1.43-.92.88-1.98,1.56-3.11,2.14-.64.33-1.33.58-1.99.88-1.09.49-2.25.71-3.42.87-1.43.2-2.87.21-4.29-.07-.83-.16-1.67-.29-2.47-.56-.94-.32-1.84-.75-2.73-1.19-.61-.31-1.16-.72-1.74-1.09-.25-.16-.5-.29-.8-.36-.6-.14-1.21-.28-1.78-.5-.75-.29-1.47-.65-2.2-.99-1.15-.53-2.29-1.06-3.44-1.59-1.36-.63-2.73-1.26-4.09-1.89-.31-.14-.34-.21-.23-.54.25-.78.52-1.55.78-2.33.49-1.48.98-2.96,1.47-4.44.66-1.99,1.32-3.97,1.99-5.96.7-2.09,1.4-4.17,2.1-6.26.3-.9.6-1.81.91-2.71.59-1.73,1.17-3.46,1.76-5.18.05-.14.11-.26.18-.44ZM84.38,36.67c.11,0,.17,0,.22,0,.26-.02.42-.15.42-.34,0-.18-.11-.28-.38-.33-.17-.03-.35-.05-.52-.09-.43-.1-.87-.17-1.25-.42-.22-.15-.45-.3-.68-.44-.48-.3-.85-.7-1.07-1.23-.05-.11-.1-.23-.17-.32-.15-.18-.4-.14-.49.08-.04.09-.05.22-.03.31.15.49.33.98.75,1.3.4.31.82.6,1.25.88.6.39,1.3.49,1.93.59Z"/>
        <path class="cls-1" d="M33.3,22.77c-.03-.66.04-1.38.24-2.08.11-.4.24-.8.42-1.17.52-1.06,1.01-2.14,1.74-3.08.11-.14.23-.27.35-.39.55-.57,1.09-1.15,1.67-1.69.68-.64,1.46-1.13,2.31-1.52,1.12-.51,2.29-.71,3.51-.82.9-.08,1.78-.01,2.62.28.97.34,1.85.84,2.61,1.55.51.48.88,1.05,1.28,1.6.16.23.27.5.35.77.2.65.35,1.32.44,2,.05.4.17.79.25,1.18.08.38.07.41-.31.48-.74.15-1.38.51-1.97.97-.39.3-.66.71-.92,1.11-.09.13-.15.3-.16.45-.07.98-.17,1.94.32,2.87.38.71.77,1.38,1.37,1.92.23.21.23.28.04.5-.59.69-1.18,1.39-1.81,2.06-.27.29-.64.49-1.04.58-.89.19-1.79.19-2.68.04-.41-.07-.82-.15-1.24-.16-.71-.02-1.37-.26-2.06-.38-.98-.17-1.92-.5-2.84-.88-.73-.3-1.34-.79-1.99-1.22-.35-.23-.68-.48-1.03-.71-.23-.15-.4-.33-.51-.6-.17-.41-.4-.79-.57-1.19-.32-.77-.44-1.57-.38-2.48Z"/>
        <path class="cls-10" d="M35.62,61.65c-.02-.17-.05-.27-.03-.36.15-.73.31-1.47.45-2.2.15-.76.27-1.53.41-2.29.09-.5.19-1,.3-1.5.19-.9.4-1.8.57-2.71.23-1.2.41-2.4.63-3.59.14-.74.31-1.47.46-2.2.09-.43.16-.87.24-1.3.02-.14,0-.27-.15-.33-.18-.07-.24.07-.31.18-.06.09-.1.19-.12.3-.17.81-.34,1.62-.5,2.44-.18.92-.34,1.84-.52,2.76-.16.84-.33,1.68-.49,2.52-.15.78-.28,1.55-.43,2.33-.24,1.19-.49,2.39-.72,3.58-.13.64-.22,1.29-.35,1.93-.08.41-.17.47-.57.47-1.75,0-3.5.02-5.24,0-.56,0-1.11-.13-1.67-.2-.29-.04-.59-.06-.87-.12-.42-.09-.53-.27-.45-.69.08-.46.18-.92.27-1.38.11-.58.21-1.16.32-1.73.02-.1.03-.21.07-.31.33-.81.56-1.64.78-2.49.2-.78.44-1.55.65-2.32.17-.62.34-1.24.51-1.86.35-1.28.69-2.56,1.05-3.84.07-.26.2-.5.29-.75.09-.24.21-.47.27-.71.31-1.23.86-2.37,1.34-3.53.31-.75.72-1.46,1.09-2.2.21-.41.54-.7.92-.93.16-.09.35-.17.53-.17.67-.04,1.32.01,1.97.3.49.22,1.05.32,1.58.44.48.11.97.2,1.45.29.22.04.45.06.67.09.26.04.35.19.19.39-.58.73-.87,1.6-1.23,2.43-.22.5-.43,1.01-.44,1.58,0,.31.11.54.31.75.37.39.75.77,1.2,1.07.11.07.22.16.29.27.13.18.05.36-.05.52-.39.59-.8,1.18-1.17,1.78-.23.37-.47.76-.62,1.17-.09.26-.12.61-.02.86.42,1.06.88,2.1,1.35,3.14.29.64.6,1.26.92,1.88.13.25.15.5.08.78-.14.56-.39,1.04-.77,1.48-.3.35-.66.62-.99.94-.17.17-.33.36-.5.52-.16.15-.33.27-.49.41-.15.13-.3.26-.45.4-.04.04-.06.09-.11.12-.6.37-1.02.94-1.55,1.39-.09.07-.19.12-.36.22Z"/>
        <path class="cls-16" d="M51.71,25.04c.26.22.34.49.46.72.18.36.33.74.51,1.1.23.47.58.84.96,1.18.24.22.51.39.83.47.14.04.27.1.47.19-.13.12-.22.19-.31.26-.18.16-.37.31-.53.49-.67.75-.49,1.94.33,2.56.02.02.04.03.07.05.49.36.51.37.12.82-1.1,1.28-2.29,2.45-3.71,3.38-1.22.8-2.51,1.45-3.89,1.9-.92.3-1.84.58-2.81.67-.87.08-1.73.22-2.6.16-.99-.08-1.98-.14-2.94-.4-1.15-.31-2.29-.66-3.36-1.2-.85-.43-1.67-.92-2.46-1.45-.78-.53-1.49-1.15-2.12-1.85-.31-.35-.42-.81-.55-1.24-.35-1.1-.46-2.24-.42-3.38.03-.99.48-1.76,1.41-2.16.39-.17.82-.26,1.23-.35.68-.14,1.23.18,1.76.54.81.55,1.6,1.13,2.42,1.67.66.43,1.39.76,2.16.96.96.25,1.92.51,2.89.71.65.13,1.33.14,1.99.26.79.14,1.58.09,2.37.09.94,0,1.74-.34,2.36-1.04.7-.78,1.39-1.57,2.03-2.4.44-.57.79-1.22,1.03-1.9.09-.26.21-.51.33-.8ZM33.93,28.31s0-.04,0-.06c-.66.09-1.33.17-1.99.27-.36.05-.71.12-1.07.21-.26.06-.37.22-.32.43.04.18.18.27.45.24.24-.03.48-.07.71-.12.42-.08.47-.05.45.39-.02.49.05.97.18,1.43.36,1.32.94,2.51,2.1,3.33.05.04.11.08.16.13.63.57,1.38.94,2.17,1.2,1.12.37,2.27.55,3.45.48.12,0,.26,0,.35-.07.1-.07.18-.2.2-.31.02-.14-.09-.25-.23-.29-.1-.03-.21-.04-.32-.04-.68,0-1.37.03-2.04-.17-.48-.14-.96-.23-1.44-.38-.74-.23-1.34-.73-1.95-1.19-.71-.54-1.18-1.23-1.47-2.07-.07-.22-.16-.43-.24-.64-.2-.51-.23-1.05-.23-1.59,0-.35.11-.43.48-.44.35,0,.7,0,1.05,0,.13,0,.27,0,.4,0,.28-.03.42-.17.41-.4-.01-.22-.13-.33-.41-.34-.28-.01-.56,0-.85,0Z"/>
        <path class="cls-16" d="M73.37,58.28c-.15-.21-.28-.35-.36-.51-.26-.5-.67-.87-1.06-1.26-.15-.14-.36-.23-.56-.31-.17-.07-.24-.17-.24-.36-.05-1.09-.15-2.17-.54-3.2-.07-.19-.03-.33.13-.46.31-.25.62-.52.93-.77.96-.78,1.83-1.67,2.68-2.56.48-.51.92-1.06,1.31-1.63.48-.7,1.04-1.33,1.58-1.98.63-.77,1.2-1.59,1.79-2.38.57-.76,1.15-1.52,1.72-2.28.33-.43.8-.67,1.25-.94.12-.07.31-.03.46,0,.54.1,1.08.22,1.61.33.18.04.37.04.56.07.21.03.41.07.66.12-.05.3-.1.55-.14.8-.07.38-.12.77-.19,1.15-.1.55-.2,1.11-.32,1.66-.03.13-.14.26-.25.35-.18.13-.24.3-.32.49-.21.51-.43,1.01-.67,1.5-.16.32-.37.62-.55.93-.35.59-.71,1.17-1.2,1.66-.05.05-.1.1-.12.16-.19.58-.66.97-1.02,1.43-.23.3-.46.6-.7.88-.78.87-1.54,1.76-2.35,2.6-.52.54-1.11,1.02-1.65,1.54-.57.55-1.14,1.1-1.68,1.68-.21.23-.34.54-.5.82-.08.13-.14.27-.25.48Z"/>
        <path class="cls-18" d="M88.21,19.32c-.21-.36-.19-.71-.29-1.02-.08-.25-.14-.52-.28-.74-.23-.37-.57-.37-.86-.03-.08.09-.15.2-.19.31-.27.73-.71,1.38-1.07,2.06-.05.09-.12.18-.18.27-.25.41-.6.62-1.09.72-1.84.35-3.6.96-5.31,1.7-.14.06-.26.14-.4.19-.12.05-.25.07-.41.11-.04-.16-.09-.27-.08-.38.03-.68.04-1.37.33-2.01.23-.51.45-1.03.69-1.54.38-.8.88-1.53,1.47-2.2.39-.44.74-.93,1.16-1.34.68-.67,1.45-1.23,2.34-1.61.07-.03.15-.06.22-.1.87-.5,1.82-.69,2.8-.82,1.27-.16,2.52-.15,3.76.13.62.14,1.17.45,1.73.74.97.5,1.59,1.31,2.07,2.24.61,1.19,1.07,2.43,1.23,3.77.04.35.13.69.17,1.03.05.36-.05.44-.4.37-.67-.15-1.34-.29-2.01-.43-.4-.08-.42-.1-.42-.49,0-.58-.01-1.16-.03-1.73,0-.2-.03-.4-.07-.6-.05-.23-.16-.44-.42-.49-.27-.05-.43.12-.55.33-.13.22-.24.45-.37.67-.06.11-.15.2-.27.36-.07-.17-.12-.26-.15-.35-.09-.38-.16-.76-.26-1.14-.06-.22-.14-.44-.26-.63-.3-.45-.78-.44-1.08.01-.19.28-.35.57-.5.87-.24.46-.46.94-.7,1.41-.07.13-.18.24-.31.39Z"/>
        <path class="cls-2" d="M81.71,24.68c.18-.22.38-.25.58-.29.6-.11,1.21-.22,1.82-.33,1.07-.2,2.13-.42,3.2-.59.67-.11,1.36-.17,2.04-.2.74-.03,1.48,0,2.22-.02,1-.02,1.97.15,2.93.46.4.13.8.22,1.19.36.36.13.42.22.4.6-.04,1.2-.28,2.37-.6,3.52-.04.16-.15.32-.28.43-.71.67-1.54,1.15-2.41,1.58-.62.31-1.26.54-1.91.72-.62.17-1.25.28-1.89.4-.42.08-.85.13-1.27.16-.25.02-.51-.04-.76-.07-.69-.1-1.38-.2-2.06-.32-.36-.06-.71-.16-1.05-.26-.25-.08-.3-.16-.24-.42.19-.89.09-1.76-.15-2.62-.11-.37-.2-.75-.3-1.13-.17-.67-.63-1.14-1.09-1.62-.11-.11-.22-.22-.35-.36Z"/>
        <path class="cls-10" d="M49.54,38.89h.38c.38.51.63,1.09,1.08,1.55.75.78,1.45,1.61,2.16,2.43.61.7,1.19,1.41,1.79,2.12.13.15.27.3.44.41.28.18.46.44.63.71.19.29.41.56.62.84.02.02.04.04.06.06.32.56.78,1.02,1.2,1.5.39.44.75.9,1.13,1.35.09.1.19.19.28.29.6.6.55,1.43-.11,1.97-.27.22-.52.47-.74.74-.59.71-1.15,1.45-1.72,2.17-.38.47-.76.94-1.14,1.41-.06.07-.12.14-.2.2-.17.14-.34.15-.51,0-.02-.02-.05-.03-.07-.05-.74-.69-1.56-1.31-2.19-2.13-.37-.48-.75-.94-1.12-1.41-.18-.23-.22-.47-.15-.76.05-.19.05-.4.08-.59.02-.16.03-.32.07-.48.19-.65.27-1.31.29-1.98,0-.08,0-.16.03-.24.2-.68-.07-1.24-.52-1.72-.45-.48-.93-.92-1.4-1.38-.05-.05-.09-.1-.13-.15-.18-.24-.17-.34.09-.47.52-.27,1.05-.53,1.57-.81.14-.07.26-.18.39-.28.18-.14.22-.34.14-.54-.13-.32-.25-.65-.41-.96-.41-.8-.83-1.59-1.42-2.28-.27-.31-.45-.7-.65-1.06-.08-.14-.1-.31.04-.46Z"/>
        <path class="cls-16" d="M42.89,46.85c-.02-1.26-.04-2.53-.06-3.79,0-.17-.04-.35-.07-.52-.03-.2.03-.35.22-.43.41-.16.75-.4,1.01-.77.06-.08.24-.12.35-.11.31.03.61.02.91-.09.1-.04.26,0,.38.05.52.22,1.03.46,1.55.67.2.08.31.2.32.41.01.2.03.4.03.6-.05,1.39.07,2.76.21,4.14.08.83.24,1.64.37,2.46.09.6.18,1.19.28,1.79.15.89.29,1.78.46,2.66.04.23-.03.34-.2.46-.65.48-1.37.82-2.16.93-.59.08-1.21.1-1.8.04-.64-.05-1.27-.2-1.9-.34-.73-.16-.74-.24-.58-.95.19-.89.3-1.8.49-2.69.19-.89.15-1.79.17-2.69.01-.62.05-1.23.08-1.85,0,0-.02,0-.03,0Z"/>
        <path class="cls-16" d="M55.93,28.06c-.43-.08-.86-.12-1.27-.24-.49-.14-.81-.53-1.08-.93-.5-.74-.85-1.55-1.16-2.38-.32-.83-.35-1.7-.39-2.57-.03-.7-.06-1.4-.14-2.09-.05-.48-.19-.95-.28-1.42-.11-.57-.22-1.13-.3-1.7-.03-.19,0-.41.06-.59.34-.96.88-1.78,1.69-2.41.4-.32.8-.62,1.32-.74.27-.06.44-.01.59.2.16.22.32.43.47.65.57.86,1.05,1.77,1.48,2.72.41.93.7,1.88.93,2.87.09.37.07.37-.27.55-1.1.6-1.89,1.45-2.23,2.71-.25.94-.08,1.81.23,2.68.11.32.33.58.58.81.36.34.7.71,1.14.96.15.09.22.23.18.41-.04.18-.17.27-.34.3-.41.08-.82.15-1.23.22Z"/>
        <path class="cls-9" d="M102.44,66.49c-.07-.21-.15-.42-.22-.63-.2-.64-.39-1.28-.6-1.92-.12-.38-.1-.39.17-.65.5-.47.86-1.02.96-1.72.06-.45.18-.9.01-1.35-.11-.3-.22-.61-.38-.89-.08-.15-.25-.28-.41-.36-.09-.04-.28,0-.35.08-.07.08-.07.24-.05.36.01.08.1.16.15.23.65.88.39,2.2-.18,2.85-.04.05-.1.08-.2.15-.08-.16-.17-.29-.21-.43-.11-.42-.2-.83-.28-1.26-.15-.86-.29-1.72-.43-2.58-.04-.22-.11-.44-.16-.66-.19-.75-.38-1.51-.57-2.26-.11-.44-.24-.88-.33-1.33-.19-.93-.36-1.87-.52-2.81-.07-.4-.11-.8-.11-1.2-.02-.79-.24-1.53-.37-2.3-.08-.49-.12-.99-.18-1.48-.12-1.01-.28-2.01-.53-3-.17-.66-.24-1.35-.38-2.02-.08-.38-.22-.75-.32-1.12-.1-.35-.17-.7-.28-1.05-.09-.3-.2-.58-.29-.88-.06-.2-.12-.41-.15-.63-.01-.08.05-.17.07-.25.09.03.22.03.27.09.38.49.77.97,1.1,1.49.2.31.32.68.45,1.03.28.74.57,1.47.72,2.26.11.61.19,1.23.38,1.81.36,1.07.43,2.18.64,3.28.21,1.09.28,2.21.57,3.29.26.96.47,1.93.7,2.89.2.86.49,1.68.81,2.48.3.74.74,1.43,1.17,2.11.36.57.75,1.11.98,1.75.04.11.1.22.17.32.77,1.26,1.3,2.62,1.6,4.06.18.87.24,1.76.21,2.65,0,.19-.02.4-.23.47-.22.08-.47.11-.65-.08-.26-.27-.53-.55-.71-.87-.28-.5-.5-1.04-.75-1.56-.2-.44-.4-.88-.62-1.31-.11-.23-.27-.3-.45-.24-.19.06-.31.25-.28.48.05.33.14.66.17.99.04.52.03,1.04.04,1.57,0,.05-.03.09-.05.14-.04,0-.07.01-.11.02Z"/>
        <path class="cls-14" d="M48.98,55.13c.21.66.2,5.51,0,5.98-.14-.08-.28-.14-.41-.23-.67-.46-1.34-.94-2.02-1.4-.51-.36-.69-.32-1.15.12-.63.61-1.28,1.19-1.93,1.77-.23.2-.35.17-.54-.12-.54-.82-1.08-1.64-1.61-2.46-.13-.2-.27-.4-.41-.6-.13-.18-.15-.38-.01-.56.42-.53.55-1.19.8-1.79.13-.31.15-.33.47-.24.33.1.66.22,1,.29.58.11,1.16.19,1.75.25.32.03.64,0,.97,0,.65.01,1.25-.17,1.83-.42.32-.14.62-.31.93-.46.1-.05.22-.08.35-.13Z"/>
        <path class="cls-18" d="M95.54,16.09c.04-.1.08-.2.12-.3.32-.79.94-1.33,1.6-1.82.33-.25.71-.44,1.09-.61.25-.11.54-.15.82-.17.12,0,.28.1.36.2.19.21.35.44.5.68.36.59.73,1.19,1.06,1.8.25.46.45.94.67,1.41.09.2.07.38-.08.56-.52.64-1.03,1.3-1.56,1.95-.21.26-.44.51-.68.74-.12.11-.29.2-.45.24-.64.16-1.28.3-1.92.43-.19.04-.27-.02-.29-.23-.14-1.25-.39-2.49-.79-3.68-.1-.3-.22-.6-.34-.9-.04-.1-.07-.2-.11-.31Z"/>
        <path class="cls-10" d="M41.26,54.94c-.14-.14-.24-.21-.31-.32-.11-.18-.2-.38-.28-.58-.19-.43-.33-.89-.57-1.28-.39-.64-.57-1.36-.86-2.03-.06-.14-.1-.28-.17-.41-.15-.27-.16-.54,0-.8.27-.46.54-.93.82-1.38.26-.42.56-.82.83-1.24.38-.61.34-.92-.16-1.42-.09-.09-.18-.21-.3-.27-.39-.18-.64-.52-.91-.83-.22-.24-.29-.49-.18-.81.25-.78.49-1.56.92-2.26.17-.29.29-.61.46-.9.14-.23.29-.45.48-.64.28-.27.7-.13.77.25.13.8.25,1.6.32,2.42.21,2.4.03,4.8.11,7.2.02.53-.09,1.04-.17,1.55-.11.69-.24,1.37-.36,2.05-.08.41-.17.81-.26,1.22-.03.14-.09.27-.17.48Z"/>
        <path class="cls-10" d="M49.86,55.64c-.07-.12-.16-.21-.17-.3-.06-.4-.08-.8-.13-1.19-.03-.25-.07-.5-.12-.75-.12-.59-.26-1.17-.37-1.76-.11-.63-.18-1.27-.28-1.9-.03-.21-.08-.42-.11-.63-.11-.7-.18-1.4-.27-2.1-.19-1.48-.21-2.96-.24-4.45-.01-.8-.15-1.59-.24-2.39-.04-.34-.12-.68-.17-1.03-.04-.27.02-.37.26-.47.25-.11.35-.09.53.12.45.51.82,1.08,1.18,1.67.56.93,1.03,1.91,1.53,2.87.03.06.06.12.09.18.12.27.09.35-.16.48-.65.35-1.3.69-1.95,1.04-.42.22-.46.52-.12.86.6.59,1.19,1.19,1.79,1.79.4.41.62.86.42,1.45-.1.31-.1.66-.15.99-.05.33-.13.65-.18.98-.08.46-.15.92-.22,1.38-.14.93-.3,1.85-.66,2.73-.04.1-.08.2-.13.29-.02.03-.05.06-.13.14Z"/>
        <path class="cls-19" d="M94.67,38.35c0,.23.01.38,0,.52-.02.21-.07.43-.08.64-.06,1-.32,1.96-.46,2.94-.12.9-.34,1.76-.58,2.63-.21.78-.29,1.59-.63,2.33-.03.07-.07.14-.12.25-.08-.08-.15-.14-.19-.21-.12-.21-.23-.43-.34-.64-.43-.85-.9-1.68-1.29-2.55-.37-.83-.88-1.57-1.31-2.36-.26-.47-.57-.91-.86-1.36-.07-.11-.12-.23-.21-.41.73-.13,1.41-.22,2.08-.37.67-.15,1.32-.35,1.97-.58.65-.23,1.28-.52,2.01-.83Z"/>
        <path class="cls-13" d="M98.6,29.68c.14-.26.26-.47.38-.68.26-.46.46-.94.47-1.48,0-.44.1-.88.09-1.32,0-.45-.08-.91-.15-1.35-.06-.36-.18-.7-.43-.98-.07-.08-.11-.18-.19-.31.13-.06.23-.14.33-.15,1.12-.1,2.24-.27,3.37-.08.4.07.56.27.5.67-.11.84-.19,1.68-.38,2.5-.18.78-.46,1.54-.71,2.3-.07.23-.18.45-.26.68-.14.41-.42.61-.85.6-.11,0-.22.02-.32,0-.5-.07-1.01-.15-1.51-.24-.1-.02-.19-.09-.33-.16Z"/>
        <path class="cls-3" d="M65.98,60.16c-.16.03-.28.06-.43.09-.04-.09-.07-.16-.1-.23-.14-.3-.4-.35-.64-.12-.08.07-.14.17-.19.26-.61,1.01-1.04,2.09-1.08,3.29-.01.4-.24.51-.59.32-.4-.23-.57-.66-.37-1.11.12-.27.2-.51.03-.79-.06-.1-.02-.26,0-.39.14-.87.54-1.62,1.09-2.3.08-.09.16-.18.22-.29.11-.21.06-.47-.1-.58-.17-.11-.33-.06-.51.16-.6.7-1.02,1.51-1.34,2.37-.01.04-.03.08-.05.11-.01.02-.04.03-.09.06-.02-.09-.07-.18-.07-.26.03-.87.2-1.69.58-2.48.55-1.17,1.46-2.01,2.45-2.78.34-.26.45-.25.66.12.31.57.8.97,1.27,1.39.18.15.32.29.24.54-.01.04-.02.09,0,.12.17.42-.08.61-.4.83-.4.28-.62.7-.58,1.21.01.14,0,.29,0,.45Z"/>
        <path class="cls-20" d="M61.05,52.37c-.09.16-.15.32-.25.46-.59.83-1.2,1.65-1.79,2.48-.58.81-1.15,1.62-1.71,2.44-.38.55-.43.56-.87.07-.11-.13-.25-.24-.38-.36-.2-.19-.22-.26-.05-.48.42-.55.86-1.1,1.3-1.64.41-.51.84-1.01,1.25-1.52.4-.5.8-1.01,1.2-1.52.13-.17.27-.25.48-.18.26.08.56.06.82.26Z"/>
        <path class="cls-11" d="M34.02,63.19c-1.28-.1-2.57-.2-3.85-.3-.04,0-.08,0-.12,0-.83-.04-1.66-.07-2.49-.12-.27-.02-.53-.08-.79-.13-.18-.04-.24-.16-.2-.33.04-.17.13-.26.31-.24.07,0,.13,0,.2.02,1.95.37,3.93.26,5.9.32.39.01.78.02,1.17.05.32.02.38.08.36.3-.02.32-.13.43-.4.44-.03,0-.05,0-.08,0,0,0,0,0,0,0Z"/>
        <path class="cls-6" d="M96.1,33.18c-.41-.05-.87-.18-1.22-.56-.26-.28-.25-.5,0-.78.67-.74,1.86-.87,2.7.06.21.23.18.52-.08.75-.37.33-.81.52-1.4.52Z"/>
        <path class="cls-20" d="M80.73,28.88c-.14-.11-.27-.17-.37-.27-.64-.65-1.22-1.36-1.59-2.21-.05-.11-.1-.22-.12-.34-.01-.08,0-.23.05-.26.25-.15.51-.29.78-.39.09-.03.27.05.35.13.23.24.47.49.62.78.17.33.28.7.33,1.07.06.39.03.8.03,1.2,0,.07-.04.15-.09.28Z"/>
        <path class="cls-8" d="M72.39,61.67c-.05-.1-.08-.17-.11-.24-.37-.99-1.03-1.76-1.87-2.36-.65-.47-1.4-.66-2.21-.57-.07,0-.14.03-.2.01-.06-.01-.13-.06-.14-.11-.01-.05.03-.14.07-.17.07-.05.18-.06.26-.11.15-.09.17-.2.04-.32-.1-.09-.22-.15-.33-.23-.14-.1-.23-.22-.14-.44.09.02.18.02.25.06.21.1.4.22.61.31.56.27,1.11.15,1.52-.32.05-.06.09-.14.16-.18.07-.04.18-.08.24-.06.13.05.11.18.04.27-.13.18-.27.38-.44.51-.49.38-.49.46.06.75.24.13.46.32.68.48.1.07.17.18.27.25.7.47,1.04,1.2,1.38,1.94.08.18.1.36-.14.53Z"/>
        <path class="cls-11" d="M64.38,63.02c.32.32.59.64.91.9.31.25.66.44.99.65-.2.46-.75.77-1.2.64-.21-.06-.42-.16-.61-.28-.24-.15-.37-.33-.23-.64.06-.13.02-.31,0-.47-.04-.27-.02-.43.14-.8Z"/>
        <path class="cls-5" d="M70.61,64.26c0-.23-.02-.4,0-.57.05-.25.02-.49-.1-.7-.22-.37-.42-.75-.68-1.09-.16-.2-.4-.37-.64-.47-.63-.27-1.25-.56-1.95-.59-.11,0-.23-.03-.23-.17,0-.15.12-.22.24-.22.23.01.46.04.68.09.79.2,1.56.47,2.14,1.06.58.59,1.02,1.28.91,2.19-.03.26-.04.28-.36.46Z"/>
        <path class="cls-14" d="M47.35,41.09c-.55-.03-.97-.25-1.36-.54-.02-.02-.04-.04-.05-.06-.17-.26.1-1.12.4-1.24.02,0,.05-.01.08-.02.68-.2.68-.2.83.47.07.35.12.71.16,1.07.01.09-.03.18-.05.31Z"/>
        <path class="cls-12" d="M96.79,24.87c.05.07.13.13.15.21.09.38.21.75.23,1.13.03.64.07,1.29-.13,1.92-.01.04,0,.08-.03.12-.05.13-.05.31-.24.33-.15.02-.39-.21-.39-.4,0-.23.02-.45.05-.68.03-.28.06-.56.1-.84.06-.57.13-1.14.19-1.72,0-.02.03-.03.07-.08Z"/>
        <path class="cls-14" d="M42.47,39.79c.36-.04.65-.08.94-.09.27,0,.35.09.31.34-.07.38-.21.75-.46,1.05-.06.07-.14.13-.22.17-.19.1-.29.06-.38-.13,0-.01-.01-.02-.01-.04-.06-.41-.11-.81-.18-1.29Z"/>
        <path class="cls-14" d="M45.25,39.53c0,.41-.13.7-.41.91-.07.06-.21.09-.29.06-.07-.03-.1-.17-.12-.26-.02-.07,0-.16.02-.24.05-.35.13-.43.48-.47.09,0,.18,0,.32,0Z"/>
        <path class="cls-17" d="M84.38,36.67c-.63-.1-1.33-.2-1.93-.59-.43-.28-.85-.57-1.25-.88-.43-.33-.6-.81-.75-1.3-.03-.09-.01-.22.03-.31.08-.21.34-.25.49-.08.07.09.12.21.17.32.22.53.59.92,1.07,1.23.23.14.45.29.68.44.38.25.82.32,1.25.42.17.04.34.06.52.09.28.05.39.15.38.33,0,.19-.16.32-.42.34-.05,0-.11,0-.22,0Z"/>
        <path class="cls-17" d="M33.93,28.31c.28,0,.56,0,.85,0,.28.01.4.12.41.34.01.23-.13.37-.41.4-.13.01-.27,0-.4,0-.35,0-.7,0-1.05,0-.37,0-.48.08-.48.44,0,.54.03,1.07.23,1.59.08.21.17.42.24.64.29.83.76,1.53,1.47,2.07.61.46,1.2.96,1.95,1.19.47.15.96.24,1.44.38.67.2,1.35.16,2.04.17.11,0,.21.02.32.04.14.04.26.14.23.29-.02.11-.11.24-.2.31-.09.06-.23.06-.35.07-1.18.08-2.33-.11-3.45-.48-.79-.26-1.54-.63-2.17-1.2-.05-.05-.1-.09-.16-.13-1.16-.82-1.74-2.01-2.1-3.33-.13-.47-.19-.94-.18-1.43.01-.44-.04-.47-.45-.39-.24.04-.47.09-.71.12-.26.03-.4-.05-.45-.24-.05-.21.06-.36.32-.43.35-.08.71-.15,1.07-.21.66-.1,1.33-.18,1.99-.27,0,.02,0,.04,0,.06Z"/>
      </g>
    </g>
  </g>
</svg>