<?xml version="1.0" encoding="UTF-8"?>
<svg id="uuid-00bedf5d-f4b2-4700-8c3c-219d329c1268" data-name="Слой 2" xmlns="http://www.w3.org/2000/svg" width="335.48" height="102.73" viewBox="0 0 335.48 102.73">
  <g id="uuid-44628051-040b-444d-a1c1-5a6ba3140b26" data-name="Слой 5">
    <g>
      <path d="M128.85,38.59c.48,0,.71.23.71.7,0,.58-.69,1.29-2.07,2.13-1.38.84-2.72,1.26-4.01,1.26-1.14,0-2.19-.37-3.15-1.12s-1.44-1.83-1.44-3.26.5-3.07,1.5-4.84c1-1.77,2.25-3.22,3.73-4.33,1.48-1.12,2.93-1.67,4.34-1.67.84,0,1.51.25,2.01.75s.75,1.09.75,1.76c0,.73-.06,1.25-.17,1.57-.11.32-.35.59-.72.81-.37.23-.67.34-.9.34s-.44-.08-.62-.25c-.18-.17-.26-.4-.26-.69,0-.2.05-.49.16-.88.1-.38.15-.7.15-.96,0-.43-.15-.65-.44-.65-.9,0-1.92.48-3.04,1.45-1.12.97-2.08,2.17-2.88,3.6-.8,1.43-1.2,2.7-1.2,3.79,0,.73.21,1.34.63,1.84.42.5,1.03.75,1.84.75.48,0,1.08-.13,1.8-.39s1.39-.6,2.01-1.04c.62-.44,1.04-.67,1.27-.67Z" style="fill: #fff; stroke-width: 0px;"/>
      <path d="M138.46,38.72c-1.64,2.16-3.21,3.24-4.72,3.24-.56,0-1.05-.22-1.46-.67s-.61-1.01-.61-1.7c0-1.66.74-3.43,2.22-5.31,1.48-1.88,2.97-2.82,4.48-2.82.76,0,1.27.39,1.5,1.16.72,0,1.08.28,1.08.83,0,.26-.07.74-.21,1.43-.25,1.29-.38,2.32-.38,3.09s.05,1.37.16,1.69.19.54.24.64c.05.1.2.21.45.32.25.12.38.29.38.5,0,.32-.16.59-.48.8s-.66.32-1.01.32c-.59,0-1.01-.29-1.27-.88-.26-.59-.39-1.28-.39-2.07v-.28c0-.09,0-.19.02-.29ZM137.95,33.49c-.63,0-1.46.7-2.47,2.1-1.01,1.4-1.52,2.59-1.52,3.57,0,.51.11.77.32.77.74,0,1.65-.66,2.73-1.97s1.62-2.46,1.62-3.45c0-.31-.07-.56-.21-.75-.14-.18-.3-.28-.47-.28Z" style="fill: #fff; stroke-width: 0px;"/>
      <path d="M149.95,38.41c-.6,1.1-1.3,1.97-2.09,2.61-.79.65-1.6.97-2.41.97-.48,0-.97-.25-1.46-.76s-.74-1.29-.74-2.34c0-.75.19-1.87.56-3.38.33-1.24.49-2.18.49-2.83.25-.53.64-.79,1.17-.79.36,0,.65.12.87.36.22.24.32.48.32.73,0,.45-.16,1.08-.47,1.9-.18.49-.38,1.18-.59,2.07s-.32,1.47-.32,1.72c0,.83.17,1.25.52,1.25.54,0,1.28-.52,2.21-1.57s1.53-2.12,1.81-3.22c.28-1.07.53-1.77.75-2.11.22-.33.53-.5.93-.5.65,0,.98.36.98,1.09,0,.11-.05.32-.16.64-.37,1.11-.55,2.36-.55,3.75,0,1.63.28,2.6.83,2.92.18.11.27.24.27.39,0,.23-.16.44-.48.64-.32.2-.62.3-.91.3-.5,0-.88-.35-1.14-1.05-.27-.7-.4-1.64-.4-2.82ZM153.03,27.87c0,.12-.03.27-.1.45-.07.18-.16.38-.28.58-.12.2-.26.4-.44.6-.17.2-.37.37-.58.52h0c-.15.1-.33.19-.54.28s-.43.16-.66.22c-.23.06-.47.11-.71.14-.24.03-.46.05-.67.05-.36,0-.7-.04-1.03-.12-.33-.08-.64-.2-.92-.35s-.54-.33-.76-.54c-.22-.21-.41-.44-.56-.69-.04-.08-.09-.18-.13-.29-.04-.11-.08-.22-.11-.32s-.05-.2-.07-.28c-.02-.08-.02-.13-.02-.16,0-.19.03-.34.09-.46s.13-.21.23-.27.19-.1.29-.12c.1-.02.2-.03.29-.03.22,0,.42.05.61.16.18.1.29.29.32.55,0,.14.04.31.11.49.07.18.18.34.32.47.15.14.35.25.59.35.25.09.54.14.88.14.08,0,.18,0,.29-.03.11-.02.22-.04.33-.07.11-.03.22-.06.33-.11s.2-.09.28-.13c.12-.08.23-.17.32-.27s.16-.22.23-.34c.06-.12.12-.24.16-.37s.08-.23.11-.33c.03-.1.08-.19.16-.26.07-.08.15-.14.23-.19.08-.05.17-.09.26-.11.09-.02.17-.04.25-.04.26,0,.48.06.64.19.16.13.24.35.24.69Z" style="fill: #fff; stroke-width: 0px;"/>
      <path d="M157.54,41.26c-.08.65-.44.97-1.08.97-.82,0-1.23-.59-1.23-1.78,0-1.92.1-3.56.31-4.92.16-1.06.24-2.1.24-3.12,0-.25.08-.45.24-.62.16-.17.38-.25.66-.25.94,0,1.41.57,1.41,1.71,0,.37-.17,1.31-.5,2.83-.2.9-.3,1.56-.3,1.96,1.79-3.94,3.41-5.91,4.85-5.91.58,0,1.05.23,1.41.7.35.46.54,1.49.55,3.08,0,1.45.08,2.18.23,2.18.11,0,.5-.71,1.17-2.12.75-1.56,1.38-2.59,1.91-3.09.53-.5,1.09-.75,1.67-.75.7,0,1.2.3,1.51.9s.53,1.61.66,3.03c.09,1.13.22,1.98.38,2.56.16.58.43.96.82,1.15.31.15.47.38.47.68,0,.27-.18.54-.54.81-.36.27-.72.41-1.09.41-.64,0-1.14-.31-1.5-.94-.36-.63-.6-1.89-.73-3.79-.07-.92-.14-1.52-.22-1.82s-.2-.45-.35-.45c-.14,0-.34.22-.6.67-.26.45-.72,1.34-1.36,2.67-.57,1.2-1.06,2.04-1.47,2.52-.41.48-.85.71-1.32.71-.36,0-.73-.16-1.1-.47-.37-.31-.57-1.45-.6-3.41-.03-1.75-.14-2.62-.34-2.62-.26,0-.9.78-1.9,2.33s-1.76,2.95-2.27,4.17Z" style="fill: #fff; stroke-width: 0px;"/>
      <path d="M189.9,40.48c-.3-.56-.52-1.62-.66-3.16-.14-1.6-.45-2.41-.92-2.41s-1.23.83-2.34,2.51-1.79,2.9-2.05,3.7c-.06.24-.16.44-.31.59-.15.16-.31.24-.46.24-.95,0-1.43-.44-1.43-1.31,0-.29.09-.97.28-2.01.24-1.35.37-3.01.37-4.96,0-.29.13-.61.39-.94.26-.34.53-.5.82-.5.36,0,.64.09.84.27s.29.66.29,1.45c0,.59-.18,1.75-.54,3.46,1.36-3.18,2.88-4.78,4.55-4.78,1.45,0,2.31,1.14,2.56,3.43.25,2.33.54,3.5.86,3.5.14,0,.31-.03.5-.09.23-.08.4-.11.54-.11.3,0,.45.18.45.53,0,.32-.21.66-.62,1.02-.41.36-.93.54-1.56.54-.73,0-1.25-.32-1.56-.95h0Z" style="fill: #fff; stroke-width: 0px;"/>
      <path d="M196.98,41.24c-.13.51-.28,1.44-.47,2.81-.19,1.36-.3,2.28-.34,2.75-.04.47-.2.86-.48,1.19-.29.33-.54.49-.77.49-.28,0-.56-.11-.84-.32-.28-.21-.41-.45-.41-.7,0-.51.08-1.09.23-1.76.94-3.75,1.45-7.63,1.54-11.61v-.19c0-.78.03-1.3.08-1.58.05-.27.21-.53.47-.79.26-.25.57-.38.93-.38.3,0,.55.13.74.4s.29.66.29,1.17-.09,1.41-.28,2.7c.7-1.16,1.53-2.12,2.5-2.88s1.85-1.14,2.65-1.14c.7,0,1.3.25,1.79.75.49.5.74,1.13.74,1.89,0,2.03-.79,3.87-2.36,5.52s-3.12,2.49-4.66,2.49c-.71,0-1.16-.27-1.34-.82ZM202.44,33.54c-.76,0-1.76.75-2.98,2.24-1.22,1.49-1.83,2.66-1.83,3.52,0,.22.11.42.32.59.22.17.47.26.76.26.8,0,1.71-.62,2.74-1.88,1.03-1.25,1.55-2.46,1.55-3.62,0-.39-.06-.67-.18-.84-.12-.17-.25-.26-.39-.26Z" style="fill: #fff; stroke-width: 0px;"/>
      <path d="M216.04,37.09c-.42,1.47-1.22,2.7-2.39,3.71-1.17,1.01-2.35,1.51-3.52,1.51-.93,0-1.69-.34-2.29-1.02-.6-.68-.9-1.51-.9-2.51,0-1.62.55-3.21,1.65-4.78s2.44-2.35,4.02-2.35c1.07,0,1.94.4,2.6,1.19.66.79,1,1.74,1,2.83,0,.48-.05.94-.16,1.4h0ZM211.15,34.12c-.44.39-.87,1.01-1.29,1.86s-.63,1.71-.63,2.57c0,.52.09.95.29,1.29.19.34.44.51.76.51.78,0,1.59-.46,2.43-1.38.84-.92,1.26-1.96,1.26-3.1,0-.65-.14-1.18-.41-1.59s-.65-.63-1.14-.63c-.46,0-.88.16-1.25.48h0Z" style="fill: #fff; stroke-width: 0px;"/>
      <path d="M220.15,39.76c0,.17.1.33.3.46.2.13.38.2.54.2,1.1,0,2.04-.19,2.84-.56.48-.24.83-.36,1.07-.36.41,0,.62.22.62.66,0,.59-.47,1.09-1.42,1.49s-2.1.61-3.46.61c-.83,0-1.54-.24-2.12-.72-.59-.48-.88-1.09-.88-1.84,0-.63.21-1.26.62-1.89.41-.62,1.44-1.37,3.08-2.24.76-.39,1.25-.69,1.48-.88.23-.19.34-.39.34-.59,0-.16-.07-.3-.2-.4s-.24-.16-.31-.16c-.4,0-1.22.27-2.48.81-.13.06-.26.08-.39.08-.6,0-.89-.2-.89-.59,0-.66.52-1.2,1.57-1.61s1.95-.62,2.71-.62c.67,0,1.25.22,1.76.66.51.44.76.97.76,1.59,0,.56-.2,1.09-.6,1.6-.4.51-1.25,1.13-2.56,1.85-.92.51-1.54.95-1.88,1.32-.34.37-.5.75-.5,1.13Z" style="fill: #fff; stroke-width: 0px;"/>
      <path d="M229.55,41.24c-.13.51-.28,1.44-.47,2.81-.19,1.36-.3,2.28-.34,2.75-.04.47-.2.86-.48,1.19-.29.33-.54.49-.77.49-.28,0-.56-.11-.84-.32-.28-.21-.41-.45-.41-.7,0-.51.08-1.09.23-1.76.94-3.75,1.45-7.63,1.54-11.61v-.19c0-.78.03-1.3.08-1.58.05-.27.21-.53.47-.79.26-.25.57-.38.93-.38.3,0,.55.13.74.4s.29.66.29,1.17-.09,1.41-.28,2.7c.7-1.16,1.53-2.12,2.5-2.88s1.85-1.14,2.65-1.14c.7,0,1.3.25,1.79.75.49.5.74,1.13.74,1.89,0,2.03-.79,3.87-2.36,5.52s-3.12,2.49-4.66,2.49c-.71,0-1.16-.27-1.34-.82ZM235.01,33.54c-.76,0-1.76.75-2.98,2.24-1.22,1.49-1.83,2.66-1.83,3.52,0,.22.11.42.32.59.22.17.47.26.76.26.8,0,1.71-.62,2.74-1.88,1.03-1.25,1.55-2.46,1.55-3.62,0-.39-.06-.67-.18-.84-.12-.17-.25-.26-.39-.26Z" style="fill: #fff; stroke-width: 0px;"/>
      <path d="M246.1,38.72c-1.64,2.16-3.21,3.24-4.72,3.24-.56,0-1.05-.22-1.46-.67-.41-.45-.61-1.01-.61-1.7,0-1.66.74-3.43,2.22-5.31,1.48-1.88,2.97-2.82,4.48-2.82.76,0,1.27.39,1.5,1.16.72,0,1.08.28,1.08.83,0,.26-.07.74-.21,1.43-.25,1.29-.38,2.32-.38,3.09s.05,1.37.17,1.69c.11.33.19.54.24.64.05.1.2.21.45.32.25.12.38.29.38.5,0,.32-.16.59-.48.8-.32.21-.66.32-1.01.32-.59,0-1.01-.29-1.27-.88-.26-.59-.39-1.28-.39-2.07v-.28c0-.09,0-.19.02-.29ZM245.6,33.49c-.63,0-1.46.7-2.47,2.1-1.01,1.4-1.52,2.59-1.52,3.57,0,.51.11.77.32.77.74,0,1.65-.66,2.73-1.97,1.08-1.31,1.62-2.46,1.62-3.45,0-.31-.07-.56-.21-.75-.14-.18-.3-.28-.47-.28Z" style="fill: #fff; stroke-width: 0px;"/>
      <path d="M250.63,41.19c.55-.55,1.19-1.69,1.93-3.41.1-.23.21-.47.34-.72.12-.25.22-.5.31-.74.05-.12.11-.25.17-.39.23-.49.45-1.12.68-1.89.23-.77.37-1.32.42-1.64.09-.54.5-.81,1.22-.81.46,0,.75.08.86.25s.23.36.35.59c.13.23.27.84.45,1.82.17.98.31,1.81.41,2.5.13.81.34,1.66.64,2.55.77-1.78,1.46-3.29,2.06-4.53.6-1.24,1.09-2.16,1.46-2.76.37-.6.63-.97.79-1.11.16-.14.32-.21.48-.21.3,0,.63.09.98.26.35.18.55.35.61.53.06.85.13,2.43.21,4.76.03.83.08,1.58.16,2.23.08.65.21,1.19.4,1.63.27.54.4,1,.4,1.38,0,.31-.12.56-.37.76-.24.2-.59.3-1.04.3-.66,0-1.09-.45-1.3-1.34-.21-.9-.32-2.49-.32-4.77,0-.34.03-.98.09-1.94l.03-.6c-.87,1.66-1.59,3.15-2.19,4.47-.82,1.8-1.37,2.89-1.67,3.27-.3.38-.63.57-.99.57h-.15c-.46,0-.81-.12-1.04-.35-.24-.23-.5-.92-.78-2.06-.28-1.14-.49-2.25-.63-3.32-.06-.44-.12-.73-.17-.87-.25.9-.41,1.44-.48,1.61-.01.03-.03.08-.07.18-.19.58-.48,1.31-.87,2.2-.39.89-.75,1.58-1.09,2.09-.33.5-.59.81-.76.93-.17.12-.38.17-.62.17-.26,0-.51-.1-.76-.3s-.38-.42-.38-.67c0-.23.07-.42.2-.57l.02-.02Z" style="fill: #fff; stroke-width: 0px;"/>
      <path d="M267.43,41.19c.55-.55,1.19-1.69,1.93-3.41.1-.23.21-.47.34-.72.12-.25.22-.5.31-.74.05-.12.11-.25.17-.39.23-.49.45-1.12.68-1.89.23-.77.37-1.32.42-1.64.09-.54.5-.81,1.22-.81.46,0,.75.08.86.25.11.16.23.36.35.59.12.23.27.84.45,1.82.17.98.31,1.81.41,2.5.12.81.34,1.66.64,2.55.77-1.78,1.46-3.29,2.06-4.53s1.09-2.16,1.46-2.76c.37-.6.63-.97.79-1.11.16-.14.32-.21.48-.21.3,0,.63.09.98.26.35.18.56.35.61.53.06.85.13,2.43.21,4.76.03.83.08,1.58.16,2.23.08.65.21,1.19.4,1.63.27.54.4,1,.4,1.38,0,.31-.12.56-.37.76-.24.2-.59.3-1.04.3-.66,0-1.09-.45-1.3-1.34-.21-.9-.31-2.49-.31-4.77,0-.34.03-.98.09-1.94l.03-.6c-.87,1.66-1.6,3.15-2.19,4.47-.81,1.8-1.37,2.89-1.67,3.27-.3.38-.63.57-.99.57h-.15c-.46,0-.81-.12-1.04-.35-.24-.23-.5-.92-.78-2.06-.28-1.14-.49-2.25-.63-3.32-.06-.44-.12-.73-.17-.87-.25.9-.41,1.44-.48,1.61-.01.03-.03.08-.07.18-.19.58-.48,1.31-.87,2.2-.39.89-.75,1.58-1.09,2.09s-.59.81-.76.93-.38.17-.62.17c-.26,0-.51-.1-.76-.3-.25-.2-.38-.42-.38-.67,0-.23.07-.42.2-.57l.02-.02Z" style="fill: #fff; stroke-width: 0px;"/>
      <path d="M291.21,38.41c-.6,1.1-1.3,1.97-2.09,2.61-.79.65-1.6.97-2.41.97-.48,0-.97-.25-1.46-.76s-.74-1.29-.74-2.34c0-.75.19-1.87.56-3.38.33-1.24.49-2.18.49-2.83.25-.53.64-.79,1.18-.79.36,0,.65.12.87.36.22.24.32.48.32.73,0,.45-.16,1.08-.47,1.9-.18.49-.38,1.18-.59,2.07s-.32,1.47-.32,1.72c0,.83.17,1.25.52,1.25.54,0,1.28-.52,2.21-1.57s1.53-2.12,1.82-3.22c.28-1.07.53-1.77.75-2.11.22-.33.53-.5.93-.5.65,0,.98.36.98,1.09,0,.11-.05.32-.16.64-.37,1.11-.55,2.36-.55,3.75,0,1.63.28,2.6.83,2.92.18.11.27.24.27.39,0,.23-.16.44-.48.64-.32.2-.62.3-.91.3-.5,0-.88-.35-1.14-1.05-.27-.7-.4-1.64-.4-2.82Z" style="fill: #fff; stroke-width: 0px;"/>
      <path d="M299.07,42.37c-1.03,0-1.82-.28-2.36-.85-.54-.56-.81-1.35-.81-2.35,0-1.58.64-3.29,1.93-5.12,1.28-1.84,2.54-2.75,3.78-2.75.6,0,1.1.3,1.52.89.42.59.63,1.21.63,1.85,0,.6-.11,1.01-.33,1.22-.22.21-.44.31-.64.31-.61,0-.96-.42-1.06-1.26-.08-.61-.23-.92-.46-.92-.49,0-1.13.7-1.94,2.09-.8,1.39-1.2,2.61-1.2,3.66,0,.85.46,1.27,1.37,1.27,1.01,0,2.03-.36,3.06-1.07.48-.34.87-.52,1.15-.52.34,0,.52.17.52.52,0,.48-.55,1.11-1.66,1.88-1.11.77-2.27,1.16-3.48,1.16Z" style="fill: #fff; stroke-width: 0px;"/>
      <path d="M308.51,41.26c-.08.65-.44.97-1.08.97-.82,0-1.23-.59-1.23-1.78,0-1.92.1-3.56.31-4.92.16-1.06.25-2.1.25-3.12,0-.25.08-.45.23-.62.16-.17.38-.25.66-.25.94,0,1.41.57,1.41,1.71,0,.37-.17,1.31-.5,2.83-.2.9-.3,1.56-.3,1.96,1.79-3.94,3.41-5.91,4.85-5.91.58,0,1.05.23,1.41.7s.54,1.49.55,3.08c0,1.45.08,2.18.23,2.18.11,0,.5-.71,1.18-2.12.75-1.56,1.38-2.59,1.91-3.09.53-.5,1.09-.75,1.67-.75.7,0,1.2.3,1.51.9s.53,1.61.66,3.03c.09,1.13.22,1.98.38,2.56.16.58.43.96.82,1.15.31.15.47.38.47.68,0,.27-.18.54-.54.81-.36.27-.72.41-1.09.41-.64,0-1.14-.31-1.5-.94s-.6-1.89-.73-3.79c-.07-.92-.14-1.52-.22-1.82-.08-.3-.2-.45-.35-.45-.14,0-.34.22-.6.67-.26.45-.72,1.34-1.36,2.67-.57,1.2-1.06,2.04-1.47,2.52-.41.48-.85.71-1.32.71-.36,0-.73-.16-1.09-.47-.37-.31-.57-1.45-.6-3.41-.03-1.75-.14-2.62-.34-2.62-.26,0-.9.78-1.9,2.33s-1.76,2.95-2.27,4.17Z" style="fill: #fff; stroke-width: 0px;"/>
      <path d="M331.66,38.72c-1.64,2.16-3.21,3.24-4.72,3.24-.56,0-1.05-.22-1.46-.67-.41-.45-.61-1.01-.61-1.7,0-1.66.74-3.43,2.22-5.31,1.48-1.88,2.97-2.82,4.48-2.82.76,0,1.27.39,1.5,1.16.72,0,1.08.28,1.08.83,0,.26-.07.74-.21,1.43-.25,1.29-.38,2.32-.38,3.09s.05,1.37.17,1.69c.11.33.19.54.24.64.05.1.2.21.45.32.25.12.38.29.38.5,0,.32-.16.59-.48.8-.32.21-.66.32-1.01.32-.59,0-1.01-.29-1.27-.88-.26-.59-.39-1.28-.39-2.07v-.28c0-.09,0-.19.02-.29ZM331.15,33.49c-.63,0-1.46.7-2.47,2.1-1.01,1.4-1.52,2.59-1.52,3.57,0,.51.11.77.32.77.74,0,1.65-.66,2.73-1.97,1.08-1.31,1.62-2.46,1.62-3.45,0-.31-.07-.56-.21-.75-.14-.18-.3-.28-.47-.28Z" style="fill: #fff; stroke-width: 0px;"/>
      <path d="M147.01,63.52s-.05.2-.05.47c0,.46.05.88.14,1.27.09.37.03.72-.17,1.04-.2.32-.49.48-.87.48-.87,0-1.3-.53-1.3-1.59l.04-.81c0-.11-.02-.16-.06-.16l-1.62.09c-1.35,0-2.41-.36-3.16-1.07-.76-.71-1.13-1.74-1.13-3.07,0-.66.18-1.42.54-2.27.36-.85.88-1.66,1.57-2.44s1.36-1.37,2.02-1.77c.65-.4,1.47-.81,2.44-1.21.14-.06.27-.12.38-.18.1-.06.16-.08.17-.08.2-.29.3-.63.3-1.02.08-.9.23-1.49.44-1.79.21-.29.66-.44,1.33-.44.48,0,.72.32.72.95,0,.17-.06.51-.17,1.04-.12.52-.18.85-.18.99,0,.08.03.14.08.18.05.04.21.07.47.1.89.11,1.77.35,2.63.74.87.39,1.48.95,1.83,1.69.36.74.54,1.37.54,1.89,0,.47-.22,1.13-.66,1.99-.44.86-1.27,1.77-2.5,2.73s-2.49,1.71-3.78,2.24ZM145.42,54.54c-.12,0-.42.14-.92.41-.49.28-1.03.72-1.61,1.32-.58.61-1.03,1.26-1.34,1.95-.31.7-.47,1.4-.47,2.12,0,.65.23,1.16.69,1.51s1.09.54,1.89.54c.23,0,.47,0,.71-.03.24-.02.38-.03.41-.04.03,0,.04-.07.04-.17,0-.8.02-1.53.07-2.18.05-.65.22-1.89.51-3.71.14-.88.21-1.38.21-1.5,0-.07-.03-.12-.09-.17-.02-.03-.06-.04-.1-.05ZM146.96,61.62c3.01-1.64,4.52-3.38,4.52-5.25,0-.71-.37-1.27-1.12-1.67-.75-.4-1.5-.6-2.25-.6-.08,0-.15.05-.22.14-.06.09-.23,1-.51,2.73-.28,1.72-.42,3.28-.42,4.65Z" style="fill: #fff; stroke-width: 0px;"/>
      <path d="M163.84,61.73c0,.65-.55,1.43-1.65,2.34-1.1.91-2.33,1.36-3.71,1.36-1.06,0-1.89-.33-2.5-1-.61-.67-.91-1.6-.91-2.79,0-1.75.62-3.4,1.86-4.94,1.24-1.54,2.57-2.3,3.98-2.3.7,0,1.27.22,1.69.67.43.45.64.97.64,1.59,0,1.09-.52,2.13-1.57,3.12-1.05.99-2.39,1.67-4.02,2.04-.19.04-.28.16-.28.34,0,.3.13.59.4.86s.62.41,1.07.41c1.26,0,2.51-.65,3.75-1.95.24-.25.47-.38.7-.38.38,0,.56.21.56.63ZM157.54,60.07c.99-.2,1.86-.62,2.62-1.27.75-.65,1.13-1.23,1.13-1.76,0-.21-.06-.38-.17-.52-.12-.14-.27-.21-.45-.21-.54,0-1.15.4-1.81,1.2-.66.8-1.1,1.66-1.32,2.56Z" style="fill: #fff; stroke-width: 0px;"/>
      <path d="M175.32,64.07c0,.15-.1.37-.3.64-.2.28-.55.42-1.06.42-.62,0-1.18-.53-1.67-1.58-.49-1.06-.84-2.21-1.05-3.46-.08-.42-.18-.91-.3-1.47-.03-.1-.05-.3-.08-.59-.03-.31-.06-.48-.08-.51-.1.2-.21.43-.32.69-.79,1.74-1.65,3.33-2.58,4.76l-.11.22c-.04.08-.09.14-.14.19-.78,1.39-1.41,2.09-1.91,2.09-.71,0-1.06-.32-1.06-.95,0-.49.33-1.12,1-1.91.81-.98,1.85-2.69,3.13-5.14l1.33-2.56c.14-.25.38-.38.72-.38.21,0,.45.06.73.18.28.12.46.27.55.44s.18.45.26.83c.45,2.12.86,3.79,1.22,5.01.36,1.22.76,1.99,1.19,2.31.34.18.51.43.51.77h0Z" style="fill: #fff; stroke-width: 0px;"/>
      <path d="M183.49,61.52c-.6,1.1-1.3,1.97-2.09,2.61-.79.65-1.6.97-2.41.97-.48,0-.97-.25-1.46-.76s-.74-1.29-.74-2.34c0-.75.19-1.87.56-3.38.33-1.24.49-2.18.49-2.83.25-.53.64-.79,1.18-.79.36,0,.65.12.87.36.22.24.32.48.32.73,0,.45-.16,1.08-.47,1.9-.18.49-.38,1.18-.59,2.07s-.32,1.47-.32,1.72c0,.83.17,1.25.52,1.25.54,0,1.28-.52,2.21-1.57s1.53-2.12,1.82-3.22c.28-1.07.53-1.77.75-2.11.22-.33.53-.5.93-.5.65,0,.98.36.98,1.09,0,.11-.05.32-.16.64-.37,1.11-.55,2.36-.55,3.75,0,1.63.28,2.6.83,2.92.18.11.27.24.27.39,0,.23-.16.44-.48.64-.32.2-.62.3-.91.3-.5,0-.88-.35-1.14-1.05-.27-.7-.4-1.64-.4-2.82Z" style="fill: #fff; stroke-width: 0px;"/>
      <path d="M193.58,60.17c.28.07.54.19.79.37.25.18.54.5.88.96.65.9,1.17,1.5,1.54,1.78.38.28.79.42,1.23.42s.7.14.7.43-.16.55-.48.84c-.32.28-.82.42-1.51.42-1.06,0-2.13-.87-3.23-2.62-.63-1.03-1.16-1.54-1.59-1.54-.06,0-.21.04-.46.12-.25.08-.41.16-.48.22s-.14.47-.19,1.2l-.1,1.73c-.01.28-.13.53-.35.73-.22.2-.49.3-.82.3-.34,0-.61-.09-.81-.29s-.29-.38-.29-.58c0-.24.08-.75.24-1.53.38-1.97.67-4.39.89-7.24.03-.36.18-.7.45-1,.28-.3.6-.45.97-.45.26,0,.47.11.64.33.17.22.25.47.25.76,0,.23-.04.46-.11.69-.09.27-.23.82-.4,1.66-.17.83-.28,1.47-.31,1.91.75-.23,1.33-.54,1.74-.94.41-.4.93-1.04,1.54-1.93.51-.73,1-1.26,1.45-1.61.45-.35.95-.52,1.49-.52.29,0,.57.12.82.37.25.25.38.51.38.79,0,.23-.07.41-.21.52-.14.12-.39.23-.74.33-.45.13-.92.49-1.43,1.07-1.05,1.21-1.88,1.98-2.48,2.3Z" style="fill: #fff; stroke-width: 0px;"/>
      <path d="M202.7,65.48c-1.03,0-1.82-.28-2.36-.85-.54-.56-.81-1.35-.81-2.35,0-1.58.64-3.29,1.93-5.12s2.54-2.75,3.78-2.75c.6,0,1.1.3,1.52.89.42.59.63,1.21.63,1.85,0,.6-.11,1.01-.33,1.22s-.44.31-.64.31c-.61,0-.96-.42-1.06-1.26-.08-.61-.23-.92-.46-.92-.49,0-1.13.7-1.94,2.09s-1.2,2.61-1.2,3.66c0,.85.46,1.27,1.37,1.27,1.01,0,2.03-.36,3.06-1.07.48-.34.87-.52,1.15-.52.34,0,.52.17.52.52,0,.48-.55,1.11-1.66,1.88-1.11.77-2.27,1.16-3.48,1.16Z" style="fill: #fff; stroke-width: 0px;"/>
      <path d="M216.03,61.83c-1.64,2.16-3.21,3.24-4.72,3.24-.56,0-1.05-.22-1.46-.67-.41-.45-.61-1.01-.61-1.7,0-1.66.74-3.43,2.22-5.31,1.48-1.88,2.97-2.82,4.48-2.82.76,0,1.27.39,1.5,1.16.72,0,1.08.28,1.08.83,0,.26-.07.74-.21,1.43-.25,1.29-.38,2.32-.38,3.09s.05,1.37.17,1.69c.11.33.19.54.24.64.05.1.2.21.45.32.25.12.38.29.38.5,0,.32-.16.59-.48.8-.32.21-.66.32-1.01.32-.59,0-1.01-.29-1.27-.88-.26-.59-.39-1.28-.39-2.07v-.28c0-.09,0-.19.02-.29ZM215.52,56.6c-.63,0-1.46.7-2.47,2.1-1.01,1.4-1.52,2.59-1.52,3.57,0,.51.11.77.32.77.74,0,1.65-.66,2.73-1.97,1.08-1.31,1.62-2.46,1.62-3.45,0-.31-.07-.56-.21-.75-.14-.18-.3-.28-.47-.28Z" style="fill: #fff; stroke-width: 0px;"/>
      <path d="M232.47,56.31h0c-.03.3-.22,1.56-.58,3.77-.14.81-.21,1.28-.23,1.42l-.06.45c-.12.92-.18,1.54-.18,1.87l.04.57c0,.72-.38,1.08-1.13,1.08-.87,0-1.31-.48-1.31-1.44,0-.57.12-1.5.37-2.77.07-.36.14-.77.22-1.24.02-.14.06-.39.13-.75.46-2.46.7-4.25.7-5.39,0-.16-.03-.24-.1-.24-.79-.07-1.18-.39-1.18-.97,0-.36.1-.64.3-.86.2-.22.47-.33.81-.34.5-.03.87-.11,1.13-.26.26-.13.5-.2.7-.2.34,0,.61.07.83.2.18.1.69.15,1.54.15.01,0,.66-.02,1.95-.06,1.28-.04,1.96-.07,2.03-.09.07-.02.19-.07.38-.16.26-.11.52-.17.78-.17.21,0,.36.02.46.05.09.04.18.06.26.06l.91-.06c.24-.01.46.05.67.2.21.14.32.38.32.71s-.12.64-.37.88c-.25.24-.53.37-.86.4-.08,0-.15.05-.23.13-.08.08-.21.59-.4,1.52-.19.94-.38,2.35-.55,4.25-.17,1.89-.26,3.61-.26,5.14,0,.34-.12.63-.38.87s-.45.36-.59.36c-.93,0-1.39-.77-1.39-2.32,0-1.4.34-4.52,1.01-9.35.03-.23.05-.35.05-.38,0-.05-.05-.08-.17-.1-.11-.02-.57-.03-1.38-.03h-1.7c-.63,0-1.11.04-1.43.1-.32.06-.52.13-.6.19-.08.07-.16.32-.24.76-.09.44-.17,1.12-.25,2.05Z" style="fill: #fff; stroke-width: 0px;"/>
      <path d="M251.54,61.73c0,.65-.55,1.43-1.65,2.34-1.1.91-2.33,1.36-3.71,1.36-1.06,0-1.89-.33-2.5-1-.61-.67-.91-1.6-.91-2.79,0-1.75.62-3.4,1.86-4.94,1.24-1.54,2.57-2.3,3.98-2.3.7,0,1.27.22,1.69.67.43.45.64.97.64,1.59,0,1.09-.52,2.13-1.57,3.12s-2.39,1.67-4.02,2.04c-.19.04-.28.16-.28.34,0,.3.13.59.4.86.27.27.62.41,1.07.41,1.26,0,2.51-.65,3.75-1.95.24-.25.47-.38.7-.38.38,0,.56.21.56.63ZM245.24,60.07c.99-.2,1.86-.62,2.62-1.27.76-.65,1.13-1.23,1.13-1.76,0-.21-.06-.38-.17-.52-.12-.14-.26-.21-.45-.21-.55,0-1.15.4-1.81,1.2-.67.8-1.1,1.66-1.32,2.56Z" style="fill: #fff; stroke-width: 0px;"/>
      <path d="M255.6,64.37c-.08.65-.44.97-1.08.97-.82,0-1.23-.59-1.23-1.78,0-1.92.1-3.56.31-4.92.16-1.06.24-2.1.24-3.12,0-.25.08-.45.24-.62.16-.17.38-.25.66-.25.94,0,1.41.57,1.41,1.71,0,.37-.17,1.31-.5,2.83-.2.9-.3,1.56-.3,1.96,1.79-3.94,3.41-5.91,4.85-5.91.58,0,1.05.23,1.41.7.35.46.54,1.49.55,3.08,0,1.45.08,2.18.23,2.18.11,0,.5-.71,1.17-2.12.75-1.56,1.38-2.59,1.91-3.09.53-.5,1.09-.75,1.67-.75.7,0,1.2.3,1.51.9s.53,1.61.66,3.03c.09,1.13.22,1.98.38,2.56.16.58.43.96.82,1.15.31.15.47.38.47.68,0,.27-.18.54-.54.81-.36.27-.72.41-1.09.41-.64,0-1.14-.31-1.5-.94-.36-.63-.6-1.89-.73-3.79-.07-.92-.14-1.52-.22-1.82s-.2-.45-.35-.45c-.14,0-.34.22-.6.67-.26.45-.72,1.34-1.36,2.67-.57,1.2-1.06,2.04-1.47,2.52-.41.48-.85.71-1.32.71-.36,0-.73-.16-1.1-.47-.37-.31-.57-1.45-.6-3.41-.03-1.75-.14-2.62-.34-2.62-.26,0-.9.78-1.9,2.33s-1.76,2.95-2.27,4.17Z" style="fill: #fff; stroke-width: 0px;"/>
      <path d="M274.6,64.35c-.12.51-.28,1.44-.47,2.81-.19,1.36-.3,2.28-.34,2.75-.04.47-.2.86-.48,1.19-.29.33-.54.49-.77.49-.28,0-.56-.11-.84-.32-.28-.21-.41-.45-.41-.7,0-.51.08-1.09.24-1.76.94-3.75,1.45-7.63,1.54-11.61v-.19c0-.78.02-1.3.08-1.58.05-.27.21-.53.47-.79.26-.25.57-.38.93-.38.3,0,.55.13.74.4.19.27.29.66.29,1.17s-.09,1.41-.28,2.7c.7-1.16,1.53-2.12,2.5-2.88.97-.76,1.85-1.14,2.65-1.14.7,0,1.3.25,1.79.75.49.5.74,1.13.74,1.89,0,2.03-.79,3.87-2.36,5.52s-3.12,2.49-4.66,2.49c-.71,0-1.16-.27-1.34-.82ZM280.06,56.65c-.76,0-1.76.75-2.98,2.24s-1.83,2.66-1.83,3.52c0,.22.11.42.33.59.22.17.47.26.76.26.8,0,1.71-.62,2.74-1.88,1.03-1.25,1.55-2.46,1.55-3.62,0-.39-.06-.67-.18-.84-.12-.17-.25-.26-.39-.26Z" style="fill: #fff; stroke-width: 0px;"/>
      <path d="M293.66,60.2c-.42,1.47-1.22,2.7-2.39,3.71-1.18,1.01-2.35,1.51-3.52,1.51-.93,0-1.69-.34-2.29-1.02-.6-.68-.9-1.51-.9-2.51,0-1.62.55-3.21,1.66-4.78,1.1-1.57,2.44-2.35,4.01-2.35,1.07,0,1.94.4,2.6,1.19.67.79,1,1.74,1,2.83,0,.48-.05.94-.16,1.4h0ZM288.77,57.23c-.44.39-.87,1.01-1.29,1.86s-.63,1.71-.63,2.57c0,.52.1.95.29,1.29.19.34.44.51.76.51.78,0,1.59-.46,2.43-1.38.84-.92,1.26-1.96,1.26-3.1,0-.65-.14-1.18-.41-1.59-.27-.42-.65-.63-1.14-.63s-.88.16-1.25.48h0Z" style="fill: #fff; stroke-width: 0px;"/>
      <path d="M302.02,55.39c.61.31,1.09.83,1.42,1.55.34.72.5,1.55.5,2.5,0,1.63-.52,3.05-1.57,4.26s-2.18,1.82-3.4,1.82c-1.12,0-1.99-.42-2.63-1.27-.64-.85-.95-2.1-.95-3.75,0-1.95.35-3.92,1.05-5.9.7-1.99,1.55-3.48,2.57-4.48,1.01-1,2.07-1.5,3.18-1.5.73,0,1.31.23,1.74.68s.65,1.07.65,1.86c0,.56-.24,1.24-.71,2.02s-1.09,1.52-1.84,2.22ZM301.58,59.62c0-.73-.11-1.34-.32-1.85-.21-.51-.52-.79-.92-.86-.02,0-.14.08-.37.25l-2.22,1.66c-.08.53-.11,1.07-.11,1.63,0,2.02.5,3.04,1.5,3.04.7,0,1.28-.4,1.75-1.18.46-.79.7-1.66.7-2.61v-.08ZM298.18,56.37c1.96-1.59,3.15-2.72,3.57-3.39.42-.67.62-1.2.62-1.6,0-.53-.16-.79-.49-.79-.6,0-1.24.53-1.93,1.58-.69,1.05-1.28,2.45-1.77,4.2Z" style="fill: #fff; stroke-width: 0px;"/>
      <path d="M311.83,61.83c-1.64,2.16-3.21,3.24-4.72,3.24-.56,0-1.05-.22-1.46-.67s-.61-1.01-.61-1.7c0-1.66.74-3.43,2.22-5.31,1.48-1.88,2.97-2.82,4.48-2.82.76,0,1.27.39,1.5,1.16.72,0,1.08.28,1.08.83,0,.26-.07.74-.21,1.43-.25,1.29-.38,2.32-.38,3.09s.05,1.37.16,1.69.19.54.24.64c.05.1.2.21.45.32.25.12.38.29.38.5,0,.32-.16.59-.48.8s-.66.32-1.01.32c-.59,0-1.01-.29-1.27-.88-.26-.59-.39-1.28-.39-2.07v-.28c0-.09,0-.19.02-.29ZM311.32,56.6c-.63,0-1.46.7-2.47,2.1-1.01,1.4-1.52,2.59-1.52,3.57,0,.51.11.77.32.77.74,0,1.65-.66,2.73-1.97s1.62-2.46,1.62-3.45c0-.31-.07-.56-.21-.75-.14-.18-.3-.28-.47-.28Z" style="fill: #fff; stroke-width: 0px;"/>
    </g>
  </g>
  <g id="uuid-dbc17044-182e-4cd8-a4a8-f03b61cb9576" data-name="Слой 7">
    <g>
      <path d="M0,71.51c.27-.07.54-.14.81-.21.92,1.03,1.13,2.39,1.56,3.61,1.36,3.87,2.94,7.66,4.27,11.55.45,1.32,1.19,2.56,1.21,4.01-.23.33-.52.49-.92.34-.94-1.02-1.17-2.39-1.61-3.62-1.51-4.17-3.05-8.32-4.64-12.45C.37,73.94.44,73.05,0,72.31,0,72.04,0,71.77,0,71.51Z" style="fill: #d2adad; stroke-width: 0px;"/>
      <path d="M0,72.31c1.07.99,1.01,2.47,1.54,3.69,1.29,2.96,2.19,6.08,3.44,9.06.77,1.85,1.31,3.79,1.96,5.69-.05.42-.32.38-.61.31-1.16-1.3-1.36-3.03-1.96-4.57-1.33-3.41-2.54-6.87-3.84-10.29-.22-.58-.16-1.23-.53-1.76v-2.13Z" style="fill: #d6b4b4; stroke-width: 0px;"/>
      <path d="M0,80.58v-1.87c.55-.06.65.38.78.73,1.44,4.04,3.04,8.01,4.38,12.09-.06.36-.31.44-.63.43-1.21-.51-1.23-1.78-1.65-2.75-.94-2.19-1.55-4.52-2.5-6.72C.12,81.89.26,81.2,0,80.58Z" style="fill: #e2caca; stroke-width: 0px;"/>
      <path d="M0,74.44c.89.83,1,2.03,1.4,3.08,1.7,4.47,3.34,8.95,5,13.43-.13.3-.31.46-.64.28-.9-1.34-1.29-2.89-1.82-4.38-1.09-3.03-2.29-6.02-3.36-9.06-.23-.67-.23-1.39-.58-2.02v-1.33Z" style="fill: #d9baba; stroke-width: 0px;"/>
      <path d="M0,75.78c.97,1.36,1.27,3,1.84,4.52,1.38,3.64,2.69,7.31,4.03,10.96-.02.46-.29.4-.59.29-1.1-2.05-1.72-4.29-2.51-6.45-.82-2.25-1.78-4.44-2.49-6.73-.1-.33-.05-.71-.29-.99v-1.6Z" style="fill: #dcbebe; stroke-width: 0px;"/>
      <path d="M0,77.38c1.15,1.15,1.18,2.8,1.77,4.18,1.32,3.07,2.24,6.3,3.54,9.39.06.15.02.35.02.53-.06.1-.14.12-.24.05-1.12-1.06-1.1-2.62-1.66-3.92-1.17-2.72-2.05-5.57-3.06-8.37-.07-.2-.25-.35-.38-.53,0-.44,0-.89,0-1.33Z" style="fill: #dec3c3; stroke-width: 0px;"/>
      <path d="M0,80.58c1.02,2.74,2,5.49,3.07,8.21.41,1.04.65,2.18,1.5,3-.05.58-.43.65-.91.57-1.1-1.81-1.66-3.84-2.37-5.81C.83,85.28.25,84.05,0,82.71,0,82,0,81.29,0,80.58Z" style="fill: #e6d0d0; stroke-width: 0px;"/>
      <path d="M4.35,92.92c-.84.3-.57,1.05-.53.74.21-2.02-.54-.76-1.49-.5-1.16-1.29-1.4-2.99-1.99-4.53-.14-.36-.11-.78-.34-1.12v-2.13c.48-.07.63.33.73.63.76,2.26,1.82,4.42,2.31,6.78,0,1.9,1.58-1.76,1.32.13Z" style="fill: #eee0e0; stroke-width: 0px;"/>
      <path d="M0,87.51c1.16,1.72,1.47,3.8,2.33,5.65C.42,93.9.75,91.92,0,91.25v-3.73Z" style="fill: #f3eaea; stroke-width: 0px;"/>
      <path d="M0,82.71c.84.84.92,2.03,1.36,3.05.91,2.12,1.6,4.34,2.38,6.51-.12.3-.29.47-.63.29C1.93,89.87,1.09,87.04,0,84.31v-1.6Z" style="fill: #e8d6d6; stroke-width: 0px;"/>
      <path d="M0,84.31c1.1,1.02,1.01,2.56,1.61,3.8.67,1.4,1.07,2.93,1.59,4.41-.14.2-.32.22-.52.09C1.91,90.16,1.15,87.7,0,85.38v-1.07Z" style="fill: #ebdbdb; stroke-width: 0px;"/>
      <path d="M56.58,49.93c0,.34,0,.67,0,1.01.42.43.34.99.34,1.51.01,4.66-.02,9.32.02,13.98.01,1.28-.45,2.02-1.64,2.56-4.42,1.97-8.78,4.06-13.19,6.04-.85.38-1.67.83-2.48,1.29-.67.19-1.36.35-1.97.72-.78.38-1.56.76-2.38,1.07-.42.16-.8.4-1.23.52-.2.04-.4.02-.6-.05-.67-.42-.79-1.16-1.04-1.81-2.01-5.4-3.98-10.82-6.01-16.22-.11-.29-.22-.58-.17-.9.14-.51.58-.69.99-.91.38-.18.76-.36,1.14-.55.31-.15.62-.3.92-.46.25-.13.51-.24.77-.33.26-.09.52-.18.77-.3.35-.17.7-.35,1.05-.52.36-.17.71-.35,1.06-.53.2-.1.41-.19.63-.27.43-.13.84-.34,1.24-.54.31-.15.62-.31.92-.47.42-.21.83-.43,1.27-.58.45-.14.86-.35,1.28-.56.48-.22.95-.46,1.41-.71.37-.18.74-.37,1.11-.53.5-.17.99-.37,1.46-.61.38-.18.75-.37,1.11-.56.53-.28,1.1-.49,1.66-.72.61-.26,1.19-.58,1.79-.88.6-.31,1.23-.54,1.85-.8.58-.25,1.12-.56,1.68-.83,1.14-.39,2.17-.99,3.21-1.59.62-.22,1.22-.5,1.84-.72,1.08-.37,1.42-.15,1.51,1.02.09,1.1.03,2.19-.33,3.24Z" style="fill: #831a1a; stroke-width: 0px;"/>
      <path d="M70.67,12.25c5.69-2.66,11.38-5.32,17.08-7.98,3.05-1.42,6.1-2.82,9.24-4.27.33,1.77-.17,3.5.28,5.16.25.4.2.85.2,1.3,0,4.71-.05,9.41.03,14.12.02,1.46-.53,2.26-1.83,2.86-6.64,3.09-13.29,6.14-19.94,9.2-1.25.57-2.45,1.27-3.75,1.71-.52.18-1.09.55-1.53-.18-.21-.55-.19-1.13-.19-1.71,0-6.06,0-12.12,0-18.18,0-.7-.07-1.43.42-2.04Z" style="fill: #831a1a; stroke-width: 0px;"/>
      <path d="M39.22,76.31c.66-.86,1.7-1.11,2.6-1.53,4.54-2.13,9.1-4.23,13.68-6.27.84-.37,1.08-.82,1.07-1.69-.03-5.29,0-10.58,0-15.87q2.77-1.24,2.77,1.77c0,6.18-.02,12.35.02,18.53,0,.83-.24,1.25-1,1.59-5.07,2.29-10.11,4.64-15.18,6.95-.76.35-1.26.81-1.63,1.6-3.22,6.78-6.5,13.54-9.73,20.31-.31.65-.59,1.03-1.44,1.03-7.06-.04-14.13-.02-21.19-.03-.16,0-.33-.03-.61-.06.64-1.44,1.25-2.79,1.86-4.15.05-.06.1-.12.16-.18.13-.08.28-.14.44-.17,1.25-.11,2.51-.03,3.76-.06,4.38-.04,8.77.1,13.14-.08.76-.17.85-.89,1.17-1.43.3-.53.57-1.09.83-1.64.3-.54.56-1.09.81-1.64.44-.75.55-1.65,1.02-2.39.54-.84.93-1.75,1.36-2.64.47-.88.93-1.77,1.32-2.69.43-.99.83-2,1.32-2.96.95-1.51,1.54-3.2,2.38-4.77.38-.49.53-1.14,1.06-1.53Z" style="stroke-width: 0px;"/>
      <path d="M70.7,34.48c4.12-1.86,8.24-3.71,12.35-5.6,4.27-1.96,8.51-3.98,12.8-5.92.93-.42,1.3-.91,1.28-1.98-.07-4.75-.03-9.5-.03-14.25,0-.53-.07-1.07.17-1.57.8-.37,1.6-.74,2.41-1.11.4.32.2.75.21,1.11.01,6.75-.02,13.51.04,20.26,0,.98-.38,1.38-1.18,1.75-12.75,5.86-25.49,11.77-38.26,17.61-1.25.57-2.12,1.29-2.61,2.58-.34.89-.69,1.8-1.3,2.56,0-.92-.02-1.84-.03-2.75,0-1.64,0-1.64-1.45-1-.55.24-1.09.58-1.74.49-.13-.27,0-.5.12-.73.62-1.17,1.05-2.44,1.68-3.61.39-.72.84-1.35,1.6-1.71,1.26-.48,2.46-1.08,3.66-1.69,1.34-.46,2.57-1.19,3.85-1.78,1.79-.64,3.39-1.7,5.18-2.35.41-.15.78-.44,1.25-.33Z" style="stroke-width: 0px;"/>
      <path d="M70.7,34.48c-2.08,1.09-4.19,2.13-6.4,2.94-.69-.47-.7-1.2-.7-1.91-.03-6.24-.02-12.49,0-18.73,0-.54.09-1.06.43-1.51,2.19-1.07,4.37-2.16,6.65-3.03,0,7.41.02,14.82.03,22.23Z" style="fill: #841b1b; stroke-width: 0px;"/>
      <path d="M64.02,15.28c0,6.64,0,13.28-.01,19.92,0,.76.08,1.49.29,2.22-1.19.72-2.44,1.31-3.75,1.78-.64-.61-.67-1.43-.68-2.22-.04-6.15-.02-12.3-.02-18.45,0-.54.07-1.06.4-1.51,1.25-.58,2.51-1.16,3.76-1.74Z" style="fill: #841c1c; stroke-width: 0px;"/>
      <path d="M56.84,40.88c-1.42.76-1.59,2.34-2.31,3.55-.33.56-.46,1.23-.91,1.73-.67-.76-.67-1.72-.68-2.64-.04-7.21-.02-14.42-.01-21.64,0-.58.03-1.16.41-1.64,1.02-.61,2.1-1.1,3.22-1.51.65.61.67,1.44.68,2.23.04,6.13.02,12.26.01,18.39,0,.54-.06,1.07-.4,1.52Z" style="fill: #861f1f; stroke-width: 0px;"/>
      <path d="M53.34,20.25c0,6.43,0,12.86.02,19.29,0,2.21-.1,4.42.26,6.62-.08.17-.17.34-.25.52-.75.97-1.94,1.13-2.95,1.62-.5-.5-.43-1.15-.43-1.76-.01-7.72-.01-15.44,0-23.16,0-.62-.02-1.25.43-1.77.91-.58,1.89-1.03,2.92-1.36Z" style="fill: #872121; stroke-width: 0px;"/>
      <path d="M56.84,40.88c0-5.58-.01-11.15-.02-16.73,0-1.81.1-3.62-.26-5.41,1.24-.58,2.47-1.15,3.71-1.73,0,5.81.02,11.62.03,17.43,0,1.59-.08,3.18.26,4.75-1.2.65-2.41,1.27-3.71,1.68Z" style="fill: #851d1d; stroke-width: 0px;"/>
      <path d="M48.81,49.1c-.62.27-1.24.53-1.87.8-.64-.44-.68-1.12-.68-1.79-.03-7.77-.02-15.54-.01-23.32,0-.54.09-1.06.43-1.51.62-.28,1.24-.56,1.87-.84.53.54.42,1.24.42,1.89.02,7.81,0,15.63.02,23.44,0,.45-.03.89-.18,1.31Z" style="fill: #892525; stroke-width: 0px;"/>
      <path d="M48.81,49.1c-.33-.52-.27-1.1-.27-1.68,0-8.32,0-16.65,0-24.97.58-.38,1.18-.7,1.86-.84,0,8.9,0,17.79,0,26.69-.53.27-1.07.53-1.6.8Z" style="fill: #882323; stroke-width: 0px;"/>
      <path d="M26.41,59.51c2.25,6.1,4.5,12.2,6.77,18.29.09.24.29.43.44.65.08.45-.28.56-.55.76-.63.25-1.22.69-1.96.34-.87-1.02-1.04-2.34-1.5-3.53-1.71-4.44-3.29-8.92-4.95-13.38-.25-.69-.69-1.37-.43-2.17-.01-.07.01-.12.08-.15.38-.32.74-.66,1.21-.84.3-.11.6-.24.89.03Z" style="fill: #851c1c; stroke-width: 0px;"/>
      <path d="M46.68,23.28c0,8.17,0,16.35-.01,24.52,0,.72.07,1.41.28,2.09-.63.26-1.17.71-1.87.8-.49-.5-.43-1.14-.43-1.76-.01-7.71-.01-15.42,0-23.13,0-.62-.04-1.25.43-1.76.53-.26,1.07-.51,1.6-.77Z" style="fill: #8b2727; stroke-width: 0px;"/>
      <path d="M45.08,24.05c0,8.88,0,17.77,0,26.65-.53.27-1.07.53-1.6.8-.5-.5-.43-1.15-.43-1.76-.01-7.72-.01-15.44,0-23.16,0-.62-.02-1.25.43-1.77.47-.39,1.02-.61,1.6-.76Z" style="fill: #8c2929; stroke-width: 0px;"/>
      <path d="M42.41,52.03c-.51.23-.98.6-1.6.55-.5-.5-.43-1.15-.43-1.76-.01-7.47,0-14.93-.01-22.4,0-.58.12-1.15.17-1.72.1-.96.93-1.04,1.6-1.3.47.46.42,1.06.42,1.63.05,8.04-.05,16.08.05,24.12,0,.32-.04.62-.21.89Z" style="fill: #8e2e2e; stroke-width: 0px;"/>
      <path d="M42.41,52.03c-.2-.68-.28-1.38-.27-2.1.01-8.18,0-16.36,0-24.54.41-.27.82-.53,1.33-.58,0,8.89,0,17.79,0,26.68-.36.18-.71.35-1.07.53Z" style="fill: #8d2c2c; stroke-width: 0px;"/>
      <path d="M2.68,92.61c.17-.03.35-.06.52-.09.18-.08.36-.17.53-.25.33-.07.66-.15.83-.48.21-.02.47.04.53-.27.08,0,.16-.02.24-.05.23.07.41-.02.54-.22.18-.1.35-.2.53-.31.24.09.41,0,.55-.2.31,0,.57-.13.79-.34.16-.15.26-.37.49-.45.26-.11.52-.2.77-.33.32-.14.62-.35.99-.34.19.07.3.21.34.4.06.54-.25.97-.44,1.43-.45.89-.91,1.78-1.34,2.69-.56.91-.78,2.02-1.64,2.76-1.33.63-2.65,1.27-3.98,1.9-.25-.05-.37-.21-.37-.46.04-1.8-.14-3.6.11-5.4Z" style="fill: #010101; stroke-width: 0px;"/>
      <path d="M39.75,53.11c-.36.42-.89.53-1.34.78-.44-.41-.42-.96-.42-1.49-.03-6.55,0-13.1-.02-19.64,0-.35,0-.71.16-1.04.23-.76.57-1.47,1.01-2.13.75-.07.86.49.97,1.01.1.48.07.97.07,1.46,0,6.29,0,12.59,0,18.88,0,.74.11,1.52-.43,2.17Z" style="fill: #913333; stroke-width: 0px;"/>
      <path d="M24.23,60.47c2.33,6.35,4.66,12.71,6.98,19.06.08.11.08.23,0,.35-.19.19-.42.31-.68.37-.21.03-.41,0-.6-.08-.98-.99-1.18-2.35-1.64-3.58-1.75-4.69-3.51-9.37-5.21-14.07-.16-.43-.5-.87-.14-1.37.43-.23.86-.45,1.29-.68Z" style="fill: #872020; stroke-width: 0px;"/>
      <path d="M38.13,31.72c.34,1.3.28,2.63.28,3.95,0,6.07,0,12.14,0,18.21-.44.18-.89.36-1.33.54-.42-.68-.41-1.44-.41-2.19-.01-5.27,0-10.55-.01-15.82,0-.67.16-1.32.16-1.98.31-.97.79-1.85,1.32-2.71Z" style="fill: #923535; stroke-width: 0px;"/>
      <path d="M39.75,53.11c0-7.31,0-14.61,0-21.92,0-.6.17-1.28-.6-1.6.39-1,.81-1.99,1.41-2.9.33.52.26,1.11.26,1.68,0,8.07,0,16.13,0,24.2-.27.34-.65.48-1.07.53Z" style="fill: #903131; stroke-width: 0px;"/>
      <path d="M36.82,34.44c.33.52.26,1.11.26,1.68,0,5.41.02,10.81-.02,16.22,0,.7.27,1.39.02,2.09-.44.18-.89.36-1.33.54-.44-.41-.39-.96-.4-1.48-.02-4.81.04-9.62-.04-14.43,0-.58.18-1.13.13-1.71.3-1.04.83-1.98,1.38-2.91Z" style="fill: #943939; stroke-width: 0px;"/>
      <path d="M22.94,61.15c2.24,6.04,4.47,12.09,6.72,18.13.1.28.32.51.49.77.09.46-.27.55-.56.71-.2.06-.41.07-.61.01-.14-.04-.25-.12-.35-.23-1.2-2.53-2-5.21-3-7.82-1.2-3.1-2.28-6.25-3.47-9.36-.21-.56-.58-1.13-.3-1.78.3-.3.68-.42,1.09-.44Z" style="fill: #822; stroke-width: 0px;"/>
      <path d="M20.01,62.46c.25-.13.51-.25.76-.38.61.25.76.82.95,1.36,1.95,5.41,3.97,10.78,5.95,16.17.18.5.44.98.26,1.53-.13.3-.37.43-.69.43-.78-.13-1.05-.75-1.28-1.38-2-5.41-4.03-10.81-5.99-16.24-.18-.5-.4-1.01.03-1.5Z" style="fill: #8b2828; stroke-width: 0px;"/>
      <path d="M20.01,62.46c.3,2.12,1.29,4.02,1.99,6.01,1.36,3.88,2.85,7.7,4.27,11.56.2.55.35,1.1.96,1.35.08.13.07.26-.03.38-.34.3-.72.43-1.17.3-.94-.62-1.09-1.7-1.43-2.62-1.79-4.81-3.54-9.63-5.35-14.43-.24-.65-.59-1.31-.29-2.05.3-.28.67-.44,1.07-.5Z" style="fill: #8d2c2c; stroke-width: 0px;"/>
      <path d="M10.22,89.64c-.11-.08-.23-.16-.34-.24-.54-.19-.63-.71-.8-1.15-2.05-5.34-3.96-10.74-5.97-16.1-.21-.56-.57-1.14-.2-1.78.28-.14.56-.27.84-.41.48.24.67.68.84,1.15,2.12,5.84,4.14,11.73,6.46,17.49.03.13.03.26.02.39-.16.37-.41.63-.84.66Z" style="fill: #c49292; stroke-width: 0px;"/>
      <path d="M16.01,64.32c.25-.12.51-.25.76-.37.57.22.73.74.91,1.24,2,5.53,4.1,11.03,6.11,16.56.14.38.27.75.2,1.16-.03.14-.1.27-.19.38-.19.12-.4.14-.62.08-.65-.33-.89-.95-1.13-1.58-1.99-5.36-3.98-10.72-5.91-16.1-.16-.44-.49-.88-.13-1.37Z" style="fill: #933737; stroke-width: 0px;"/>
      <path d="M16.01,64.32c2.15,5.89,4.3,11.79,6.47,17.68.17.45.48.84.73,1.26.03.41-.27.44-.56.5-1.16-.12-1.25-1.15-1.54-1.93-1.33-3.56-2.63-7.13-3.96-10.69-.59-1.57-1.14-3.16-1.73-4.73-.21-.55-.6-1.12-.21-1.76.27-.11.53-.22.8-.33Z" style="fill: #953b3b; stroke-width: 0px;"/>
      <path d="M10.97,88.86c-1.6-2.81-2.42-5.93-3.56-8.93-1.25-3.31-2.45-6.65-3.67-9.97.35-.17.71-.34,1.06-.52.82,1.96,1.47,3.98,2.22,5.96,1.34,3.57,2.72,7.12,3.97,10.72.23.65.36,1.38.98,1.84.11.07.22.15.31.25.07.12.09.24.06.37-.22.26-.53.34-.84.42-.19.03-.37,0-.52-.14Z" style="fill: #bf8888; stroke-width: 0px;"/>
      <path d="M34.94,55.49c-.44.18-.89.36-1.33.55-.26-.73-.12-1.49-.12-2.23-.04-3.71.03-7.42-.03-11.13,0-.51-.15-1.06.16-1.55.18-.58.37-1.16.79-1.63.84.11.9.8.91,1.39.05,4.5.03,9,.02,13.5,0,.41-.18.77-.39,1.11Z" style="fill: #973e3e; stroke-width: 0px;"/>
      <path d="M15.21,64.65c2.19,5.97,4.38,11.93,6.57,17.9.17.47.26.96.91.97.02.52-.37.48-.7.54-1.18-.07-1.04-1.2-1.5-1.86-.07-.11-.13-.22-.19-.33-.29-.64-.4-1.35-.8-1.94-1.54-4.29-3.14-8.55-4.72-12.82-.24-.64-.66-1.28-.38-2.03.27-.14.55-.28.82-.42Z" style="fill: #973f3f; stroke-width: 0px;"/>
      <path d="M2.9,70.37c2.04,5.6,4.09,11.2,6.13,16.8.27.75.56,1.49.84,2.23-.27.14-.54.28-.82.43-.86-.69-.96-1.77-1.3-2.7-1.88-5.05-3.68-10.13-5.58-15.17-.16-.41-.36-.83-.04-1.26.26-.11.51-.23.77-.34Z" style="fill: #c79999; stroke-width: 0px;"/>
      <path d="M17.61,63.56c.21-.22.47-.37.78-.37.99,1.59,1.43,3.41,2.08,5.14,1.76,4.64,3.38,9.32,5.2,13.94-.23.53-.65.47-1.1.36-.52-.27-.72-.77-.9-1.27-1.9-5.31-3.9-10.58-5.82-15.89-.21-.59-.66-1.2-.25-1.9Z" style="fill: #903131; stroke-width: 0px;"/>
      <path d="M2.13,70.71c1.13,2.98,2.29,5.96,3.32,8.96,1.16,3.4,2.62,6.7,3.62,10.16-.27.11-.53.22-.8.33-1.03-1.44-1.36-3.17-1.97-4.77-1.45-3.81-2.85-7.64-4.25-11.47-.34-.92-.89-1.82-.71-2.88.26-.11.53-.22.79-.33Z" style="fill: #cb9f9f; stroke-width: 0px;"/>
      <path d="M9.07,67.51l.54-.24c.65.28.83.91,1.03,1.48,1.99,5.67,4.17,11.28,6.22,16.94.06.17.09.34.08.52-.09.33-.34.44-.65.43-1.23-.42-1.29-1.63-1.63-2.57-1.18-3.24-2.4-6.46-3.57-9.7-.64-1.79-1.33-3.56-1.99-5.34-.18-.49-.41-1-.02-1.52Z" style="fill: #a96060; stroke-width: 0px;"/>
      <path d="M16.81,86.19c-.83-1.23-1.11-2.68-1.63-4.03-1.89-4.95-3.72-9.92-5.57-14.88l.75-.39c.54.2.64.71.81,1.16,2.05,5.53,4.04,11.09,6.15,16.6.14.37.28.75.25,1.16-.02.15-.08.28-.17.39-.2.13-.4.14-.6-.02Z" style="fill: #a75c5c; stroke-width: 0px;"/>
      <path d="M17.61,63.56c2.18,6.35,4.54,12.64,6.95,18.91.06.06.08.12.07.18,0,.07-.02.1-.03.1-.07.08-.16.14-.25.19-.19.08-.39.19-.6.04-.61-2.45-1.64-4.76-2.51-7.12-1.46-3.98-2.98-7.95-4.47-11.93.28-.13.56-.26.84-.39Z" style="fill: #913434; stroke-width: 0px;"/>
      <path d="M1.34,71.04c1.08,2.92,2.14,5.84,3.23,8.76,1.18,3.16,2.4,6.3,3.59,9.45.1.28.07.61.1.91-.18.08-.36.17-.53.25-1.71-4.58-3.45-9.15-5.13-13.74-.65-1.77-1.2-3.58-1.79-5.38.18-.09.36-.17.54-.26Z" style="fill: #cfa6a6; stroke-width: 0px;"/>
      <path d="M34.94,55.49c0-4.72,0-9.45,0-14.17,0-.66.06-1.34-.54-1.82.26-.76.54-1.5,1.04-2.14.5.42.29.99.29,1.5.02,5.38.01,10.75.01,16.13-.27.17-.54.34-.8.51Z" style="fill: #953c3c; stroke-width: 0px;"/>
      <path d="M33.08,56.29c-.36.17-.71.35-1.07.52-.37-.33-.4-.78-.4-1.21.03-3.52-.17-7.03.12-10.54.26-.77.56-1.51,1.05-2.17.69.33.7.97.7,1.58.01,3.44,0,6.87,0,10.31,0,.55-.11,1.05-.4,1.51Z" style="fill: #9a4444; stroke-width: 0px;"/>
      <path d="M6.13,68.87c.18-.09.36-.17.54-.26.65.66.8,1.56,1.09,2.38.7,1.95,1.57,3.84,2.12,5.84.12,1.71,1.04,3.15,1.59,4.72.63,1.81,1.29,3.62,2.01,5.41.1.25.1.51.01.78-.14.28-.37.44-.69.45-.33-.05-.47-.3-.58-.58-1.12-3.58-2.54-7.06-3.84-10.58-.81-2.2-1.62-4.39-2.38-6.6-.17-.5-.56-1.08.12-1.54Z" style="fill: #b67979; stroke-width: 0px;"/>
      <path d="M12.01,88.31c-.56,0-.7-.39-.86-.84-1.21-3.39-2.44-6.78-3.69-10.16-.74-1.98-1.54-3.94-2.3-5.92-.24-.62-.44-1.26-.35-1.94.27-.11.53-.22.8-.33,1.32,4.37,3.06,8.59,4.62,12.88.32.66.33,1.43.74,2.06.07.1.13.2.17.31.11.69.22,1.39.71,1.95.06.11.11.22.14.34.02.55.51,1.08.03,1.64Z" style="fill: #bc8383; stroke-width: 0px;"/>
      <path d="M25.61,82.18c-.93-.39-.86-1.38-1.13-2.09-2.01-5.27-3.92-10.58-5.86-15.87-.12-.33-.16-.68-.23-1.02.1-.27.34-.22.55-.23,2.13,5.82,4.27,11.63,6.4,17.45.2.54.37,1.09.81,1.5.09.12.08.23-.01.34-.19.09-.37.09-.52-.07Z" style="fill: #8e2e2e; stroke-width: 0px;"/>
      <path d="M17.34,85.92c-1.12-3.04-2.28-6.08-3.38-9.12-1.13-3.14-2.38-6.24-3.38-9.42-.05-.17-.15-.32-.22-.48.18-.08.37-.17.55-.25.67.4.85,1.11,1.08,1.77,1.84,5.22,3.93,10.34,5.69,15.59.14.41.41.67.69.95.1.08.2.17.28.27.07.11.11.23.1.36-.06.11-.14.2-.25.27-.22.11-.45.19-.69.24-.19.02-.35-.02-.48-.16Z" style="fill: #a45757; stroke-width: 0px;"/>
      <path d="M27.75,81.13c-.62-2.54-1.76-4.9-2.61-7.36-1.25-3.59-2.59-7.16-3.91-10.73-.12-.33-.31-.64-.46-.96.18-.08.36-.16.54-.24.64.25.7.88.89,1.4,1.97,5.31,3.93,10.62,5.89,15.93.18.5.35,1.01.72,1.41.09,0,.17,0,.26,0,.07.07.1.14.08.21-.01.08-.03.12-.05.12-.24.21-.54.29-.85.37-.19.03-.37,0-.52-.14Z" style="fill: #8a2525; stroke-width: 0px;"/>
      <path d="M13.07,65.66c.18-.09.36-.17.53-.26.52.37.67.98.96,1.49.05.11.09.22.13.34.18.63.39,1.25.7,1.84.05.11.1.23.14.35.28.91.57,1.82.98,2.68,1.43,4.07,3.04,8.07,4.41,12.17,0,.15-.03.28-.13.39-.19.12-.4.15-.62.11-.52-.17-.78-.58-.92-1.06-1.08-3.6-2.5-7.09-3.82-10.6-.79-2.11-1.31-4.32-2.41-6.32-.2-.37-.25-.76.04-1.13Z" style="fill: #9c4747; stroke-width: 0px;"/>
      <path d="M31.72,45.05c.32.52.29,1.1.29,1.67,0,3.36,0,6.73,0,10.09-.36.17-.71.35-1.07.52-.22-.18-.34-.43-.34-.7-.02-3.13-.2-6.27.08-9.39.2-.8.62-1.5,1.04-2.19Z" style="fill: #9c4747; stroke-width: 0px;"/>
      <path d="M18.67,85.38c-.09,0-.17,0-.26,0-.98-1.21-1.23-2.74-1.75-4.14-1.73-4.64-3.45-9.27-5.15-13.92-.11-.3-.22-.58-.05-.89.3-.29.64-.48,1.07-.48.09.11.13.23.13.38.01,1.42.71,2.65,1.18,3.91,1.86,4.92,3.65,9.86,5.47,14.79.02.14-.01.28-.08.4-.2.12-.39.12-.57-.04Z" style="fill: #a15151; stroke-width: 0px;"/>
      <path d="M14.4,67.24c0-.09,0-.18,0-.27-.11-.6-.69-1.13-.27-1.81.08-.03.17-.06.25-.09,1.68,4.52,3.36,9.04,5.02,13.56.17.45.22.94.33,1.41.37.58.27,1.36.8,1.87.35.64.38,1.38.63,2.05,0,.22-.07.38-.33.36-1.09-1.68-1.5-3.63-2.19-5.46-.85-2.25-1.85-4.45-2.37-6.82-.37-.88-.45-1.88-1.07-2.67,0-.09,0-.18,0-.27-.27-.62-.31-1.34-.8-1.87Z" style="fill: #9a4343; stroke-width: 0px;"/>
      <path d="M10.14,82.18c-.97-.79-.89-2.05-1.31-3.08-1.13-2.79-2.16-5.63-3.17-8.47-.16-.45-.46-1-.05-1.51.18-.08.35-.16.53-.24-.07,1.92,1.02,3.5,1.59,5.23,1.5,4.51,3.41,8.87,4.81,13.41-.89.11-.49-.75-.8-1.07h0c-.52-.62-.55-1.42-.8-2.13h0c-.48-.63-.53-1.42-.8-2.13Z" style="fill: #b97e7e; stroke-width: 0px;"/>
      <path d="M9.07,67.51c.02.82.43,1.51.71,2.25,1.37,3.69,2.71,7.39,4.06,11.09.55,1.52,1.11,3.04,1.67,4.55.15.41.3.85.76,1.04.09.13.08.25-.04.37-.18.12-.39.16-.61.15-.22-.03-.41-.11-.55-.28-2.14-5.54-4.19-11.11-6.2-16.7-.25-.69-.62-1.4-.33-2.18.18-.1.35-.19.53-.29Z" style="fill: #ac6565; stroke-width: 0px;"/>
      <path d="M33.08,56.29c0-3.91,0-7.82,0-11.73,0-.58.02-1.16-.31-1.67.19-.63.42-1.25.85-1.77.56,4.71.13,9.45.24,14.17,0,.25-.16.5-.24.75-.18.09-.36.17-.53.26Z" style="fill: #994141; stroke-width: 0px;"/>
      <path d="M15.2,86.71c.18,0,.36,0,.54,0,.09.14.07.26-.05.37-.19.12-.39.16-.61.15-1.18-.37-1.49-1.42-1.8-2.42-.71-2.26-1.56-4.46-2.56-6.61-1.25-2.93-2.07-6.03-3.36-8.95-.15-.34-.16-.69.07-1.01.18-.08.36-.16.54-.25.61.18.55.77.7,1.19,2.13,5.86,4.25,11.72,6.52,17.52Z" style="fill: #af6c6c; stroke-width: 0px;"/>
      <path d="M11.47,66.43c2.31,6.32,4.63,12.63,6.94,18.95-.66-.37-.91-.95-1.16-1.66-1.09-3.12-2.32-6.19-3.47-9.28-.72-1.94-1.37-3.9-2.07-5.84-.24-.66-.52-1.3-.79-1.95.12-.24.34-.2.55-.21Z" style="fill: #a25454; stroke-width: 0px;"/>
      <path d="M7.44,68.24c.74,2.04,1.43,4.11,2.23,6.13.5,1.25.88,2.53,1.27,3.81.43.82.87,1.63.63,2.6-.68.2-.64-.45-.78-.75-.5-1.02-.77-2.13-1.18-3.19-.94-2.76-2.22-5.39-2.93-8.23.26-.12.51-.25.77-.37Z" style="fill: #b37272; stroke-width: 0px;"/>
      <path d="M12.54,66.17c0-.07,0-.15,0-.22.18-.09.35-.19.53-.28-.03,1.12.82,1.9,1.12,2.92.6,2.04,1.64,3.94,2.2,5.99.62,2.24,1.66,4.31,2.37,6.51.38,1.17.39,2.63,1.53,3.51.07.14.05.27-.08.37-.2.1-.4.1-.61.03-1.11-1.33-1.38-3.04-1.96-4.59-1.61-4.31-3.23-8.61-4.79-12.94-.15-.41-.33-.83-.31-1.28Z" style="fill: #9d4a4a; stroke-width: 0px;"/>
      <path d="M28.81,80.58c-.61-.25-.75-.81-.95-1.36-1.92-5.28-3.85-10.55-5.8-15.82-.2-.54-.5-1.04-.75-1.56.1-.25.34-.2.54-.26,2.32,6.33,4.64,12.66,6.96,18.99Z" style="fill: #892424; stroke-width: 0px;"/>
      <path d="M15.2,86.71c-1.12-1.27-1.36-2.93-1.93-4.43-1.81-4.74-3.54-9.52-5.29-14.29.12-.25.34-.24.56-.19,1.94,6,4.26,11.85,6.48,17.74.15.39.17.77.18,1.17Z" style="fill: #ae6969; stroke-width: 0px;"/>
      <path d="M8.34,93.66c.43-.89.86-1.78,1.29-2.67.83.27.6,1,.62,1.56.07,1.99-.07,3.98.21,5.96,0,0-.02-.02-.02-.02-.37-.02-.74-.03-1.11-.05-.96-.06-1.18-.68-1.19-1.52-.02-1.09,0-2.18.2-3.26Z" style="fill: #ecdddd; stroke-width: 0px;"/>
      <path d="M30.68,47.24c.52,1.88.18,3.8.25,5.69.05,1.46,0,2.93,0,4.4-.27.1-.53.19-.8.29-.3-.25-.38-.6-.38-.95.04-2.55-.18-5.11.08-7.66.13-.66.44-1.23.84-1.77Z" style="fill: #9e4b4b; stroke-width: 0px;"/>
      <path d="M29.35,57.93c-.27.16-.54.32-.82.47-.58-.46-.62-1.13-.64-1.78-.04-1.26-.07-2.53.1-3.79.16-.82.6-1.5,1.06-2.18.43.25.61.67.63,1.11.09,1.82.09,3.63,0,5.45-.01.27-.18.5-.33.72Z" style="fill: #a15151; stroke-width: 0px;"/>
      <path d="M29.35,57.93c-.16-2.42.3-4.87-.3-7.28.1-.62.41-1.15.79-1.64.61,2.32.17,4.68.29,7.02.03.53,0,1.07,0,1.6-.26.1-.52.2-.79.3Z" style="fill: #9f4e4e; stroke-width: 0px;"/>
      <path d="M26.41,59.51c-.27.08-.54.16-.81.23-.39-.39-.35-.86-.28-1.35.47-1.4,1.17-2.68,1.89-3.95,1.07,1.44.8,2.95.26,4.48-.35.2-.71.39-1.06.59Z" style="fill: #a65b5b; stroke-width: 0px;"/>
      <path d="M8.34,93.66c.4,1.1.18,2.24.16,3.36-.01.72.25,1.13.83,1.42-1.59.39-2.22-.47-2.43-1.87.48-.97.96-1.94,1.43-2.91Z" style="fill: #f2ebeb; stroke-width: 0px;"/>
      <path d="M27.47,58.93c-.07-1.49.21-3.01-.26-4.48.03-.65.45-1.11.79-1.62.51.52.24,1.18.26,1.77.05,1.27-.07,2.55.28,3.81-.36.17-.71.35-1.07.52Z" style="fill: #a35555; stroke-width: 0px;"/>
      <path d="M25.32,58.4c.26.42.32.87.28,1.35-.43.19-.86.38-1.29.58.34-.64.67-1.28,1.01-1.92Z" style="fill: #ab6464; stroke-width: 0px;"/>
      <path d="M14.14,65.16c.09.6.18,1.21.27,1.81-.44-.43-.67-.97-.8-1.57.18-.08.36-.16.53-.25Z" style="fill: #9a4444; stroke-width: 0px;"/>
      <path d="M33.07,78.96c.18-.17.36-.34.55-.51.17,0,.35,0,.52,0,.71.08.64.68.65,1.11.03,2.03.17,4.07-.11,6.09-.3.97-.76,1.86-1.31,2.71-.58-.26-.67-.79-.68-1.32-.06-2.32-.05-4.65,0-6.97,0-.41.13-.78.39-1.09Z" style="fill: #984040; stroke-width: 0px;"/>
      <path d="M38.41,77.91c-.76,1.64-1.39,3.35-2.37,4.88-.64-.42-.65-1.1-.66-1.75-.02-1.04-.02-2.09-.16-3.13.76-.43,1.54-.84,2.4-1.07,1.01-.2.79.52.8,1.07Z" style="fill: #933838; stroke-width: 0px;"/>
      <path d="M35.21,77.91c.72.12.51.7.53,1.13.05,1.25-.15,2.52.3,3.74-.43.96-.75,1.98-1.36,2.86-.52-1.88-.15-3.8-.27-5.69-.03-.51.2-1.08-.27-1.51.28-.33.65-.48,1.07-.53Z" style="fill: #963c3c; stroke-width: 0px;"/>
      <path d="M38.41,77.91c-.29-.34-.11-1.03-.8-1.07.45-.43.96-.68,1.61-.53-.16.59-.41,1.13-.81,1.6Z" style="fill: #8d3333; stroke-width: 0px;"/>
      <path d="M92.84,10.52c-.02,1.56-1.26,2.79-2.8,2.79-1.62,0-2.83-1.25-2.81-2.9.02-1.58,1.22-2.78,2.79-2.79,1.61,0,2.85,1.26,2.82,2.9Z" style="fill: #fefdfd; stroke-width: 0px;"/>
      <path d="M27.75,81.13c.18,0,.35-.02.53-.02.4.37.39.87.39,1.35.03,4.77-.04,9.54.03,14.3,0,.49-.12.96-.14,1.45-.16.07-.31.19-.47.19-4.47,0-8.94,0-13.41,0-.02-.12,0-.23.1-.32.15-.1.33-.15.51-.17.18-.02.36-.03.54-.03.24,0,.49,0,.73-.01.24,0,.49,0,.73,0,.18,0,.37,0,.55,0,.18,0,.37,0,.55,0,.19,0,.37,0,.56,0,.19,0,.37,0,.56,0,.25,0,.5,0,.76,0,.19,0,.39,0,.58,0,.2,0,.39,0,.59,0,.34,0,.67,0,1.01,0,.41,0,.83,0,1.24,0,.28,0,.57-.01.85,0,.29-.02.58,0,.87,0,.3-.04.6,0,.9-.05.94-.31.73-1.12.74-1.79.02-4.26.01-8.51,0-12.77,0-.53-.04-1.07.14-1.58,0-.08.01-.17.02-.25.21,0,.41-.05.53-.25Z" style="fill: #a35454; stroke-width: 0px;"/>
      <path d="M33.07,78.96c0,2.62,0,5.23,0,7.85,0,.54,0,1.07.29,1.54-.33.95-.74,1.87-1.32,2.7-.85-.45-.69-1.27-.71-1.99-.08-3.09.11-6.19-.13-9.28,0-.08,0-.17,0-.25.62-.19,1.24-.38,1.86-.57Z" style="fill: #9a4444; stroke-width: 0px;"/>
      <path d="M31.21,79.78c.74.12.53.71.53,1.15.01,2.82.01,5.64,0,8.46,0,.58-.02,1.15.3,1.66-.48.72-.46,1.68-1.1,2.33-.58-.47-.65-1.13-.65-1.8-.02-3.39,0-6.79,0-10.18,0-.5.05-.97.39-1.36.12-.21.32-.25.53-.26Z" style="fill: #9c4949; stroke-width: 0px;"/>
      <path d="M28.56,98.21c-.33-.52-.28-1.1-.28-1.68,0-5.14,0-10.29,0-15.43.19-.3.5-.26.79-.29.33.29.4.68.4,1.09-.05,4.91.15,9.81-.1,14.72-.15.59-.35,1.16-.8,1.59Z" style="fill: #a25252; stroke-width: 0px;"/>
      <path d="M29.36,96.62c-.33-.52-.29-1.1-.29-1.68,0-4.71,0-9.42,0-14.13,0-.08,0-.16,0-.24.17,0,.35,0,.52-.01.71.08.66.67.66,1.11-.04,4.44.19,8.88-.1,13.32-.11.61-.4,1.15-.79,1.63Z" style="fill: #a04f4f; stroke-width: 0px;"/>
      <path d="M30.15,94.99c-.33-.52-.27-1.1-.27-1.67,0-3.8,0-7.6,0-11.39,0-.46.17-.98-.28-1.37.18-.17.37-.34.55-.52.18,0,.35,0,.53-.01,0,3.27,0,6.54,0,9.8,0,1.19-.04,2.38.27,3.54-.13.61-.4,1.14-.79,1.61Z" style="fill: #9e4c4c; stroke-width: 0px;"/>
      <path d="M10.47,98.51c-.49-.39-.63-.88-.61-1.5.04-1.59.02-3.17,0-4.76,0-.43.14-.89-.23-1.26.2-.45.39-.9.59-1.35.26-.15.3-.59.71-.53.25.22.36.52.36.83.03,2.65.2,5.3-.1,7.95-.09.26-.28.42-.53.53-.06.06-.12.09-.21.09Z" style="fill: #e4cece; stroke-width: 0px;"/>
      <path d="M10.67,98.42c.08-.09.17-.18.25-.26.28-.22.6-.3.95-.3.2-.01.4,0,.6,0,.19,0,.39,0,.58,0,.26,0,.51,0,.77.02.26.01.52.05.74.19.04.05.08.1.12.15-.01.06-.01.12-.01.18-1.33,0-2.67.01-4,.02Z" style="fill: #c89a9a; stroke-width: 0px;"/>
      <path d="M27.2,81.64c.42.34.27.82.27,1.24,0,4.66-.03,9.33.03,13.99.01,1.08-.33,1.47-1.36,1.3-.44-.47-.39-1.06-.39-1.63,0-4.25,0-8.5,0-12.75,0-.58-.02-1.16.39-1.64,0-.08,0-.16,0-.24.35-.09.7-.18,1.06-.28Z" style="fill: #a55959; stroke-width: 0px;"/>
      <path d="M12,98.15c-.36,0-.71,0-1.07,0,0-3.01,0-6.03,0-9.04,0-.08.02-.17.03-.25.17,0,.33-.01.5-.02.54-.25.8.11.82.52.09,2.86.32,5.72-.12,8.58-.01.07-.11.14-.16.2Z" style="fill: #dec3c3; stroke-width: 0px;"/>
      <path d="M23.74,98.17c-.44,0-.89,0-1.33,0-.49-.55-.4-1.24-.4-1.89-.01-3.08-.01-6.17,0-9.25,0-.93-.04-1.85-.23-2.76-.02-.18.03-.33.14-.47.29-.02.59.01.78-.28.22,0,.41-.06.53-.26.18,0,.35-.01.53-.02.48.46.4,1.05.4,1.62,0,3.89,0,7.79,0,11.68,0,.57.05,1.16-.4,1.63Z" style="fill: #b06d6d; stroke-width: 0px;"/>
      <path d="M23.74,98.17c0-4.98,0-9.95,0-14.93,0-.08,0-.16,0-.24.18-.08.36-.16.54-.24.62.31.65.9.65,1.48.01,4.19,0,8.39,0,12.58,0,.49-.03.98-.4,1.36-.27,0-.53,0-.8,0Z" style="fill: #ad6767; stroke-width: 0px;"/>
      <path d="M13.06,98.15c-.18,0-.35,0-.53,0-.38-.46-.25-1.01-.26-1.53-.03-2.69.03-5.38-.04-8.07,0-.08.02-.16.03-.24.23-.18.49-.13.74-.06.39.31.44.76.44,1.21.02,2.49.01,4.98,0,7.46,0,.45-.05.89-.4,1.23Z" style="fill: #d8b8b8; stroke-width: 0px;"/>
      <path d="M12.24,88.55c.46.38.29.9.29,1.36.01,2.74,0,5.49,0,8.23-.18,0-.36,0-.54,0,0-2.72.01-5.44,0-8.16,0-.44.2-1.02-.53-1.14.19-.28.49-.26.78-.29Z" style="fill: #dbbcbc; stroke-width: 0px;"/>
      <path d="M12.77,88.29c-.17,0-.33.02-.5.03-.09,0-.18,0-.26,0-.09-.62-.18-1.24-.27-1.86.38.27.24.93.8,1.07,0,.22.05.42.27.53.08.06.1.12.07.17-.03.05-.06.07-.1.07Z" style="fill: #b97e7e; stroke-width: 0px;"/>
      <path d="M21.9,83.8c-.01.08-.02.17-.03.25-.13.15-.29.2-.49.19-.12-.03-.22-.09-.3-.18-.43-.65-.55-1.38-.55-2.14.89.31.22,1.76,1.37,1.88Z" style="fill: #994242; stroke-width: 0px;"/>
      <path d="M20.54,81.91c-.72-.43-.82-1.12-.8-1.87.78.4.49,1.27.8,1.87Z" style="fill: #994242; stroke-width: 0px;"/>
      <path d="M26.13,82.15c0,5.34,0,10.68,0,16.02-.27,0-.53,0-.8,0-.47-.51-.39-1.15-.39-1.76,0-4.02,0-8.05,0-12.07,0-.57.1-1.16-.39-1.62,0-.08,0-.16,0-.24.36-.06.78.08,1.05-.3.18,0,.35-.02.53-.02Z" style="fill: #a85f5f; stroke-width: 0px;"/>
      <path d="M17.34,98.18c-.27,0-.53,0-.8,0-.25-.28-.38-.61-.38-.97.03-3.51-.14-7.02.09-10.52,0-.08.02-.16.03-.24.22,0,.42-.05.53-.26.17-.01.35-.02.52-.03.45.41.38.97.38,1.49.01,3.01.01,6.02,0,9.03,0,.53.03,1.07-.37,1.51Z" style="fill: #c59595; stroke-width: 0px;"/>
      <path d="M17.34,98.18c0-4.01,0-8.02,0-12.03,0-.08,0-.16,0-.24.18,0,.36,0,.53,0,.44.42.37.97.37,1.49.01,3.09.01,6.18,0,9.27,0,.53.03,1.07-.37,1.5-.18,0-.36,0-.53,0Z" style="fill: #c39090; stroke-width: 0px;"/>
      <path d="M24.56,82.72c.95-.06.78.63.78,1.18,0,4.76,0,9.51,0,14.27-.27,0-.53,0-.8,0,0-4.62,0-9.25,0-13.87,0-.53.05-1.07-.26-1.55.09,0,.18-.02.27-.03Z" style="fill: #aa6363; stroke-width: 0px;"/>
      <path d="M12.77,88.29c.01-.08.02-.16.03-.24.18-.09.36-.19.54-.28.26-.15.5-.13.69.13.29.48.24,1.02.24,1.54,0,2.37,0,4.74,0,7.11,0,.57.05,1.15-.4,1.61-.27,0-.53,0-.8,0,0-2.88,0-5.76,0-8.63,0-.43.14-.9-.29-1.23Z" style="fill: #d5b2b2; stroke-width: 0px;"/>
      <path d="M13.87,87.77c-.18,0-.35,0-.53,0-.49-1.33-.96-2.67-1.46-4-.75-2-1.52-3.99-2.25-5.99-.1-.27-.03-.61-.03-.92.95.76.71,2.07,1.37,2.97.23.31.14.78.5,1.03.28.08.45.28.55.53.74,2,1.61,3.95,2.06,6.04-.03.14-.1.26-.21.35Z" style="fill: #b47575; stroke-width: 0px;"/>
      <path d="M10.94,84.31c.46.64.59,1.4.8,2.13-.84-.5-.81-1.32-.8-2.13Z" style="fill: #b97e7e; stroke-width: 0px;"/>
      <path d="M10.14,82.18c.46.64.59,1.4.8,2.13-.76-.53-.78-1.33-.8-2.13Z" style="fill: #b97e7e; stroke-width: 0px;"/>
      <path d="M19.47,98.17c-.18,0-.36,0-.53,0-.29-.31-.37-.7-.36-1.11.02-3.81-.1-7.63.07-11.44,0-.08.02-.16.03-.24.17,0,.34-.02.51-.02.7.07.67.65.67,1.1.04,3.54.03,7.08.01,10.62,0,.41-.1.79-.39,1.1Z" style="fill: #bd8585; stroke-width: 0px;"/>
      <path d="M17.87,98.18c0-4.09,0-8.18,0-12.27.12-.21.31-.25.53-.25.29.33.26.74.26,1.14,0,3.41,0,6.83,0,10.24,0,.4.02.8-.26,1.14h-.53Z" style="fill: #c18c8c; stroke-width: 0px;"/>
      <path d="M18.4,98.17c0-4.17,0-8.35,0-12.52.08-.02.16-.03.24-.04.46.38.29.9.29,1.37.01,3.73,0,7.46,0,11.19-.18,0-.36,0-.53,0Z" style="fill: #bf8888; stroke-width: 0px;"/>
      <path d="M21.09,84.05c.08,0,.17.01.25.03.45.46.42,1.05.43,1.62.02,3.62.01,7.23,0,10.85,0,.57,0,1.16-.43,1.62-.18,0-.36,0-.53,0-.44-.47-.37-1.06-.37-1.63,0-3.44,0-6.88,0-10.32,0-.57-.03-1.16.37-1.64,0-.08.01-.17.03-.25.09-.09.17-.18.26-.27Z" style="fill: #b67878; stroke-width: 0px;"/>
      <path d="M20.81,84.58c0,4.53,0,9.06,0,13.59-.18,0-.36,0-.53,0-.44-.47-.39-1.06-.39-1.63,0-3.36,0-6.72,0-10.08,0-.58-.03-1.16.39-1.63,0-.08,0-.16.02-.25.17,0,.34,0,.52-.01Z" style="fill: #b87b7b; stroke-width: 0px;"/>
      <path d="M15.2,69.37c.88.68,1.01,1.66,1.07,2.67-.7-.75-.75-1.76-1.07-2.67Z" style="fill: #9a4444; stroke-width: 0px;"/>
      <path d="M14.4,67.24c.72.43.82,1.12.8,1.87-.55-.5-.61-1.21-.8-1.87Z" style="fill: #9a4444; stroke-width: 0px;"/>
      <path d="M12.54,66.17c1.14,1.95,1.63,4.16,2.45,6.24,1.65,4.12,2.94,8.38,4.75,12.44,0,.44-.23.45-.54.26-1.17-2.08-1.79-4.38-2.61-6.59-1-2.68-2.03-5.34-3.03-8.02-.42-1.11-.8-2.24-1.19-3.37-.12-.35-.18-.7.17-.97Z" style="fill: #9f4c4c; stroke-width: 0px;"/>
      <path d="M19.2,85.11c.22,0,.42-.06.54-.26.17,0,.35-.01.52-.02,0,4.45,0,8.89,0,13.34-.27,0-.53,0-.8,0,0-3.82,0-7.63,0-11.45,0-.47.17-.99-.29-1.37.01-.08.02-.16.03-.24Z" style="fill: #ba8080; stroke-width: 0px;"/>
      <path d="M16.25,86.69c.46.38.28.9.29,1.37.01,3.37,0,6.75,0,10.12-.27,0-.53,0-.8,0-.36-.39-.37-.88-.37-1.37,0-2.83,0-5.66,0-8.49,0-.49.02-.98.36-1.38,0-.08,0-.16.01-.24.17,0,.34-.02.5-.02Z" style="fill: #c89a9a; stroke-width: 0px;"/>
      <path d="M13.88,87.53c-.8-2.23-1.6-4.46-2.41-6.69.24-.97-.55-1.74-.53-2.67,1.04.98,1.05,2.43,1.66,3.61.71,1.4.86,3.02,1.67,4.39.23.39.4.8.94.8.06.07.09.14.08.21-.01.08-.03.11-.05.11-.19.17-.43.22-.67.26-.23.04-.47.1-.69-.03Z" style="fill: #b16f6f; stroke-width: 0px;"/>
      <path d="M15.19,87.21c0-.08,0-.15.01-.23.17,0,.35-.02.52-.03,0,3.75,0,7.49,0,11.24-.18,0-.36,0-.53,0-.36-.39-.37-.88-.37-1.37,0-2.74,0-5.48,0-8.23,0-.49.03-.98.36-1.38Z" style="fill: #cca1a1; stroke-width: 0px;"/>
      <path d="M21.34,98.17c0-4.7,0-9.39,0-14.09.18-.01.36-.02.54-.04.59.49.53,1.16.53,1.82,0,4.1,0,8.2,0,12.3-.35,0-.71,0-1.06,0Z" style="fill: #b47474; stroke-width: 0px;"/>
      <path d="M15.19,87.21c0,3.66,0,7.32.01,10.98-.17,0-.34.02-.51.03,0,0-.03-.06-.03-.06-.23-.23-.35-.52-.35-.83.02-3.34-.19-6.69.11-10.03.26-.03.52-.05.78-.08Z" style="fill: #cea4a4; stroke-width: 0px;"/>
      <path d="M14.41,87.29c.25.39.26.83.26,1.28-.01,3.2-.01,6.39-.02,9.59-.27,0-.53,0-.8,0,0-3.46,0-6.92,0-10.39,0-.08,0-.16,0-.24.18-.08.36-.16.54-.24Z" style="fill: #d1aaaa; stroke-width: 0px;"/>
    </g>
  </g>
</svg>